<svg xmlns="http://www.w3.org/2000/svg" viewBox="0 0 1401.74 1002" width="550" height="550"><defs><clipPath id="a"><path fill="none" d="m749.01 396.2-74.06 42.82-74.28-42.94v9.88l74.28 42.95 74.06-42.82v-9.89z"/></clipPath></defs><path fill="#1d79e6" fill-rule="evenodd" d="M823.63 940.41 1205 720.25c11.42-6.59 10-18.1-3.2-25.71L497.24 287.78c-13.18-7.61-33.12-8.44-44.54-1.84L71.37 506.1c-11.41 6.59-10 18.1 3.2 25.71l704.52 406.76c13.18 7.61 33.12 8.43 44.54 1.84Z" class="color1d79e6 svgShape"/><path fill="#3388dd" fill-rule="evenodd" d="m249.88 429.91 74.68-43.12c1.92-1.11 1.68-3-.53-4.32a8.35 8.35 0 0 0-7.49-.32l-74.68 43.12c-1.92 1.11-1.68 3.05.53 4.33s5.61 1.4 7.49.31Z" class="color38d svgShape"/><path fill="#274fb4" fill-rule="evenodd" d="M324.85 386.53a5.2 5.2 0 0 0-.82-.68 8.35 8.35 0 0 0-7.49-.31l-74.68 43.12c-.13.08-.17.18-.28.26-1.34-1.22-1.34-2.72.28-3.65l74.68-43.12a8.35 8.35 0 0 1 7.49.32c2.06 1.19 2.33 2.93.82 4.06ZM823.63 940.43a33 33 0 0 1-8.78 3.31v28.62a31.14 31.14 0 0 0 8.78-3.36L1205 748.84c5.26-3 7.77-7.12 7.67-11.39v-28.82c.1 4.36-2.36 8.53-7.72 11.64ZM74.57 560.43l704.51 406.76a47.14 47.14 0 0 0 13.2 5v-28.65a47.45 47.45 0 0 1-13.2-5L74.57 531.81c-6.53-3.76-10.19-8.53-10.79-13.14v26.06c-.6 5.37 3.01 11.19 10.79 15.7Z" class="color274fb4 svgShape"/><path fill="#1d79e6" fill-rule="evenodd" d="M792.28 943.54v28.62a53.57 53.57 0 0 0 22.57.2v-28.62a52.92 52.92 0 0 1-22.57-.2Z" class="color1d79e6 svgShape"/><path fill="#ffffff" fill-rule="evenodd" d="m457.42 287.51-98.85 57.07c18.78 11.63 18.37 29.84-1.25 41.16l-111.08 64.14c-19.62 11.32-51.16 11.56-71.29.72L76.1 507.67c-8.8 5.08-7.36 14.17 3.19 20.26l704.52 406.76c10.56 6.09 26.3 6.92 35.1 1.84l381.33-220.16c8.79-5.07 7.36-14.16-3.2-20.26L492.52 289.36c-10.52-6.1-26.3-6.93-35.1-1.85Z" class="colorfff svgShape"/><path fill="#274fb4" fill-rule="evenodd" d="M371.47 370.25c-1.4 6.27-6.26 12.34-14.6 17.15l-111.08 64.14c-19.62 11.32-51.16 11.56-71.29.72l-98.86 57.07a11.44 11.44 0 0 0-5.2 5.54c.43-2.72 2.29-5.26 5.66-7.2L175 450.6c20.13 10.84 51.67 10.6 71.29-.72l111.08-64.14c7.56-4.39 12.26-9.81 14.1-15.49ZM1196.59 697.77 492.07 291c-10.56-6.1-26.3-6.93-35.1-1.85l-97.26 56.15-1.14-.74 98.85-57.07c8.8-5.08 24.54-4.25 35.1 1.85L1197 696.11c7.35 4.25 10.26 9.94 8.4 14.72.73-4.4-2.3-9.3-8.81-13.06Z" class="color274fb4 svgShape"/><path fill="#1d79e6" fill-rule="evenodd" d="M803.56 943.54c26 0 198-110.47 198-110.47s203.17-114 207.1-123.49-23.89-20.81-23.89-20.81L770.9 926.48s14.51 17.06 32.66 17.06Z" class="color1d79e6 svgShape"/><path fill="#1d79e6" fill-rule="evenodd" d="m74.57 523.9 704.52 406.76c13.18 7.61 33.13 8.43 44.54 1.84L1205 712.34c3.52-2 5.81-4.53 6.92-7.24 2.09 5.55-.12 11.22-6.92 15.15L823.63 940.41c-11.41 6.59-31.36 5.77-44.54-1.84L74.57 531.81c-9.12-5.26-12.6-12.39-10.12-18.47 1.42 3.77 4.79 7.49 10.12 10.56Z" class="color1d79e6 svgShape"/><path fill="#68d0fc" d="m422.18 479.54-54.29 31.35c-8.12 4.68-21.28 4.68-29.39 0l-54.29-31.35c-8.12-4.69-8.12-12.28 0-17l54.29-31.34c8.11-4.69 21.27-4.69 29.39 0l54.29 31.34c8.11 4.72 8.11 12.31 0 17Z" class="color68d0fc svgShape"/><path fill="#ffffff" d="m354.22 440.17-7 4.05-1.38.79-4-2.28-4 2.29 4 2.28-25.35 14.7-4-2.28-4 2.28 4 2.29-6.67 3.85c-1.29.75-1.29 2 0 2.7l42.87 24.75 44.39-25.62c4.78-2.76 4.78-7.24 0-10l-34.18-19.8a5.21 5.21 0 0 0-4.68 0Z" class="colorfff svgShape"/><path fill="#68d0fc" d="M367.97 446.96h2.26v30.06h-2.26z" transform="rotate(-60 369.11 462.002)" class="color68d0fc svgShape"/><path fill="#68d0fc" d="M344.47 460.53h2.26v30.06h-2.26z" transform="rotate(-60 345.617 475.573)" class="color68d0fc svgShape"/><path fill="#68d0fc" d="M327.19 469.71h65.07v2.26h-65.07z" transform="rotate(-29.99 359.816 470.892)" class="color68d0fc svgShape"/><path fill="#ffffff" d="m410.38 469.9-47.92 27.67-5.7-3.29 47.92-27.67 5.7 3.29z" class="colorfff svgShape"/><path fill="#68d0fc" d="M311.2 460.48h65.07v2.26H311.2z" transform="rotate(-29.99 343.821 461.666)" class="color68d0fc svgShape"/><path fill="#ff4848" d="m309.41 543.82-53.52 30.9c-8 4.62-21 4.62-29 0l-53.52-30.9c-8-4.61-8-12.1 0-16.72l53.52-30.9c8-4.62 21-4.62 29 0l53.52 30.9c8 4.62 8 12.11 0 16.72Z" class="colorff4848 svgShape"/><ellipse cx="240.18" cy="533.44" fill="#ffffff" rx="17.75" ry="10.25" class="colorfff svgShape"/><path fill="#ffffff" d="M212.6 513.29h2.26v9.77h-2.26z" transform="rotate(-60 213.735 518.18)" class="colorfff svgShape"/><path fill="#ffffff" d="M265.49 543.82h2.26v9.77h-2.26z" transform="rotate(-60 266.623 548.715)" class="colorfff svgShape"/><path fill="#ffffff" d="M208.84 547.58h9.77v2.26h-9.77z" transform="rotate(-29.99 213.778 548.77)" class="colorfff svgShape"/><path fill="#ffffff" d="M261.73 517.04h9.77v2.26h-9.77z" transform="rotate(-29.99 266.687 518.249)" class="colorfff svgShape"/><path fill="#ffffff" d="M196.79 532.31h11.97v2.26h-11.97zM271.59 532.31h11.97v2.26h-11.97zM239.05 551.58h2.26v6.91h-2.26zM239.05 508.39h2.26v6.91h-2.26z" class="colorfff svgShape"/><path fill="#ffb91c" d="m426.79 618.49-53.52 30.9c-8 4.62-21 4.62-29 0l-53.52-30.9c-8-4.62-8-12.11 0-16.73l53.52-30.9c8-4.62 21-4.62 29 0l53.52 30.9c8 4.62 8 12.11 0 16.73Z" class="colorffb91c svgShape"/><path fill="#ffffff" d="m400.75 593.29-5.52-.21s-17.41 10.65-21.7 11.72c-2.14.53-15 .59-28 .66l19.35-15.11-2.08-1.06-31.9 16.14.51.13c-7.14.08-12.71.24-14.08.58-8.58 2.13-17.76 10.27-16.79 11.28 3.07 3.18 27.12 2.73 27.12 2.73l23.94 13.79 4.54-1.92-8.34-14s19.49-4.55 27.58-5.8l9.08 7.22 3.44-.86-3.78-10.09Z" class="colorfff svgShape"/><path fill="#1d79e6" d="m575 980.8-.07-2.82c1.1 0 2.21-.08 3.32-.16l.19 2.82c-1.16.08-2.31.13-3.44.16Zm-8-.18c-1.14-.09-2.29-.2-3.43-.33l.32-2.8c1.11.12 2.21.23 3.32.31Zm19.47-.93-.47-2.78q1.63-.28 3.27-.63l.58 2.76c-1.18.24-2.31.46-3.44.65Zm-30.89-.69q-1.68-.37-3.36-.81l.72-2.73c1.08.28 2.15.54 3.24.78Zm42-2-.85-2.69c1-.34 2.1-.7 3.14-1.08l1 2.65c-1.13.38-2.21.75-3.31 1.12Zm-53-1.23c-1.08-.4-2.15-.82-3.21-1.27l1.1-2.6c1 .43 2 .84 3.09 1.22Zm63.67-3-1.25-2.59c1-.48 2-1 3-1.52l1.34 2.49c-1.06.55-2.08 1.07-3.11 1.57ZM534.11 971c-.64-.34-1.26-.69-1.88-1l-1.1-.62 1.39-2.46 1.1.62c.62.36 1.22.7 1.83 1Zm84.08-3.82-1.43-2.44 2.92-1.71 1.43 2.43Zm-93.94-1.75-3-1.66 1.39-2.46 2.95 1.67Zm103.68-4L626.5 959l2.93-1.72 1.43 2.44Zm-113.51-1.59-2.95-1.67 1.39-2.46 2.95 1.67Zm123.26-4.12-1.43-2.43 2.92-1.71 1.43 2.43Zm-133.09-1.44-2.95-1.67 1.39-2.46 3 1.67Zm142.83-4.26-1.42-2.4 2.93-1.71 1.42 2.44Zm-152.66-1.3-2.95-1.67 1.39-2.46 2.95 1.67Zm162.4-4.41-1.42-2.43 2.92-1.72 1.43 2.44Zm-172.23-1.11-2.93-1.67 1.39-2.46 2.95 1.67Zm182-4.56-1.43-2.43 2.92-1.71 1.43 2.43Zm-191.81-1-3-1.67 1.39-2.45 2.95 1.66Zm201.55-4.7-1.42-2.44 2.92-1.71 1.43 2.44Zm-211.38-.86-2.95-1.67 1.39-2.45 3 1.66Zm221.13-4.85L685 924.8l2.57-1.51 1.42 2.44Zm-231-.71-2.95-1.67 1.39-2.45 2.95 1.67Zm-9.81-5.52-2.94-1.66 1.38-2.46 2.95 1.67ZM446.51 911.62l-13.83 7.99-2.28-9.3 16.11 1.31zM1091.82 951c-1.16 0-2.33-.06-3.49-.16l.24-2.81c1.08.09 2.19.14 3.28.15Zm8.11-.61-.45-2.79a45.8 45.8 0 0 0 3.22-.64l.65 2.74c-1.13.23-2.28.46-3.42.65Zm-19.62-.92c-1.11-.29-2.24-.63-3.34-1l.91-2.67c1 .36 2.09.67 3.14 1Zm30.77-2.34-1.08-2.63c1-.43 2-.91 3-1.41l1.31 2.51c-1.1.53-2.16 1.03-3.23 1.49Zm-41.56-2-1-.53-2-1.19L1068 941l2 1.18.89.5Zm51.63-3.49-1.41-2.44 2.93-1.7 1.41 2.45Zm-61.41-2.24-2.92-1.72 1.44-2.43 2.92 1.72Zm71.19-3.4-1.42-2.45 2.94-1.69 1.41 2.44Zm-80.93-2.32-2.92-1.72 1.44-2.43 2.92 1.72Zm90.7-3.32-1.42-2.44 2.94-1.7 1.41 2.45ZM1040.28 928l-2.92-1.72 1.44-2.44 2.92 1.72Zm-9.73-5.74-2.91-1.71 1.43-2.44 2.92 1.72Zm-9.73-5.73-2.91-1.72 1.43-2.43 2.92 1.72Zm-9.73-5.73-2.91-1.72 1.43-2.43 2.92 1.72Zm-9.72-5.73-2.92-1.72 1.43-2.43 2.92 1.72Zm-9.73-5.73-2.92-1.72 1.43-2.43 2.92 1.72Zm-9.73-5.73-2.91-1.77 1.43-2.43 2.92 1.72ZM1136.27 922.63l13.83 7.99 2.28-9.3-16.11 1.31z" class="color1d79e6 svgShape"/><path fill="#43bcff" d="M853.18 356.17a12.94 12.94 0 0 1-11.66 0c-3.22-1.86-3.22-4.87 0-6.73a12.88 12.88 0 0 1 11.66 0c3.22 1.86 3.22 4.87 0 6.73Z" class="color43bcff svgShape"/><path fill="#ec0000" d="M846.72 21.2c-59.25.36-108 43.59-109.62 97.25a92.47 92.47 0 0 0 15.33 53.67l71.76 91.22a15.28 15.28 0 0 0 5.88 5c9.56 5 25 5 34.59 0a15.56 15.56 0 0 0 5.76-4.77s72.09-91.41 72.09-91.41a92.52 92.52 0 0 0 15.37-50.91c0-55.5-49.88-100.42-111.16-100.05Z" class="colorec0000 svgShape"/><path fill="#d7faff" d="M911.48 179.6a109.86 109.86 0 0 0 10.33-47.11c0-50.95-33-92.26-73.87-92.51 14.45.25 26.14 41.56 26.14 92.51a288.52 288.52 0 0 1-3.66 47.11l-17 92.07a37.29 37.29 0 0 0 8.87-2.19 9.46 9.46 0 0 0 .76-1.29s48.43-88.59 48.43-88.59ZM825.2 179.6a291.54 291.54 0 0 1-3.64-49.66c.38-49.53 11.93-89.45 26-90h-.46c-39.84.33-72.62 40.33-73.7 90a110.37 110.37 0 0 0 10.3 49.66l48.23 88.4a11.23 11.23 0 0 0 .79 1.37 37.66 37.66 0 0 0 9.5 2.33Z" class="colord7faff svgShape"/><path fill="#f52121" d="M821.56 129.94a291.54 291.54 0 0 0 3.64 49.66l17 92.12a46.81 46.81 0 0 0 11.16-.05l17-92.07a288.52 288.52 0 0 0 3.66-47.11c0-50.95-11.69-92.26-26.14-92.51h-.4c-13.99.51-25.54 40.43-25.92 89.96Z" class="colorf52121 svgShape"/><path fill="#d7faff" d="m847.35 39.74.46.22s32.5-15.37 56.26-4.61a118 118 0 0 0-47.54-13.79c-5.53 10.19-8.63 16.97-9.18 18.18ZM847.12 39.64a194.22 194.22 0 0 0-9-18.06A117.51 117.51 0 0 0 789.9 36c28.1-8.44 52.83 1.67 57.22 3.64Z" class="colord7faff svgShape"/><path fill="#f52121" d="M846.68 21.2c-2.88 0-5.72.17-8.54.38a194.22 194.22 0 0 1 9 18.06l.23.1c.55-1.21 3.65-8 9.18-18.18-3.27-.24-6.55-.38-9.87-.36Z" class="colorf52121 svgShape"/><path fill="#bef2fa" d="m845.2 280.65-35 20.24 35.07 20.25a4.48 4.48 0 0 0 4.48 0l35.08-20.25-35-20.24a4.54 4.54 0 0 0-4.63 0Z" class="colorbef2fa svgShape"/><path fill="#42a4f7" d="M847.55 284.07v33.34l-28.88-16.67 28.88-16.67z" class="color42a4f7 svgShape"/><path fill="#68d0fc" d="m847.55 317.41 28.87-16.67-28.87-16.67v33.34z" class="color68d0fc svgShape"/><path fill="#d7faff" d="M855.43 35.36c4.4 2.54 4.4 6.66 0 9.2s-11.53 2.54-15.92 0-4.4-6.66 0-9.2 11.49-2.53 15.92 0Z" class="colord7faff svgShape"/><ellipse cx="847.47" cy="39.96" fill="#ff4848" rx="6.21" ry="3.43" class="colorff4848 svgShape"/><path fill="#274fb4" d="M847.47 197c-28.71 0-57.41-6.31-79.26-18.93-13.35-7.7-23.08-17.24-28.52-27.61-5.71-10.89-3.74-24.16-2.43-24.06.2 3 1.34 12.92 8.12 24.63 5 8.6 13.71 16.27 25.21 22.91 42.39 24.47 111.37 24.47 153.76 0 12.36-7.14 21-15.84 26.35-24.94a50.26 50.26 0 0 0 6.89-20.45c1.32 0 2.57 12.36-2.55 22.47-5.19 10.28-15 19.4-28.31 27.05-21.85 12.57-50.55 18.93-79.26 18.93Z" class="color274fb4 svgShape"/><path fill="#274fb4" d="M845.2 194.46h4.77v130.87h-4.77z" class="color274fb4 svgShape"/><path fill="#274fb4" d="M785.81 138.54h4.77v198.15h-4.77z" transform="rotate(-27.71 788.325 237.617)" class="color274fb4 svgShape"/><path fill="#274fb4" d="M807.84 235.23h198.15V240H807.84z" transform="rotate(-62.3 906.916 237.616)" class="color274fb4 svgShape"/><path fill="#68d0fc" d="m841.4 356-17.75-10.36a16.12 16.12 0 0 1-7.76-11.19l-5.74-33.56 37.3 20.76v30.88a4 4 0 0 1-6.05 3.47Z" class="color68d0fc svgShape"/><path fill="#42a4f7" d="M878.61 334.8a16.11 16.11 0 0 1-7.73 11L853.44 356a4 4 0 0 1-6.06-3.48l.07-30.86 37.34-20.76Z" class="color42a4f7 svgShape"/><path fill="#bef2fa" d="m847.65 317.17 28.5-16.54 8.64.26-37.32 21.54-37.31-21.55 8.16-.28 29.33 16.57z" class="colorbef2fa svgShape"/><path fill="#274fb4" d="M815.55 231.5c-.75 0-1.51 0-2.28-.05-35.22-1.64-67.07-68.36-68.41-71.2l4.32-2c.31.67 32 66.95 64.32 68.46 9.1.42 16.39-2 21.73-7.05 9.85-9.4 10-25 10-25.17H850c0 .72-.13 17.83-11.44 28.63-5.89 5.56-13.56 8.38-23.01 8.38Z" class="color274fb4 svgShape"/><path fill="#274fb4" d="M880 231.45c-9.4 0-17.12-2.82-23-8.41-11.31-10.8-11.45-27.91-11.45-28.63h4.78c0 .15.15 15.83 10 25.19 5.34 5.09 12.65 7.44 21.72 7 32.36-1.5 62.79-67.76 63.1-68.43l4.34 2c-1.28 2.84-32 69.59-67.22 71.23-.79.03-1.55.05-2.27.05Z" class="color274fb4 svgShape"/><ellipse cx="441.65" cy="405.93" opacity=".08" rx="54.79" ry="31.63" fill="#000000" class="color000 svgShape"/><path fill="#00cbac" d="M487.63 235.36s.36 156.12.36 163-4.53 13.69-13.58 18.92c-18.09 10.45-47.43 10.45-65.53 0-9.05-5.23-13.57-12.07-13.57-18.92s.35-163 .35-163Z" class="color00cbac svgShape"/><circle cx="441.65" cy="235.36" r="45.99" fill="#00cbac" class="color00cbac svgShape"/><path fill="#bef2fa" d="M416.59 376.27c18 6.82 42.41 5.66 58.23-3.47 7.33-4.23 11.69-9.53 13.09-15v-90.23c-1.4 5.5-5.76 10.79-13.09 15-15.82 9.14-40.23 10.3-58.23 3.48Z" class="colorbef2fa svgShape"/><path fill="#d7faff" d="M441.89 382.61a74.39 74.39 0 0 1-26-4.46l-1.29-.49v-94.5l2.71 1c17.76 6.73 41.52 5.32 56.51-3.34 7.39-4.26 12.94-9.76 14.1-14.31v7.85a42.22 42.22 0 0 1-12.09 9.94c-15.19 8.78-38.78 10.57-57.22 4.57v86c17.6 6.18 40.58 4.64 55.21-3.81 5.65-3.26 11.4-8.79 14.13-13.27v6.7a50.94 50.94 0 0 1-12.1 10c-9.25 5.37-21.57 8.12-33.96 8.12Z" class="colord7faff svgShape"/><path fill="#76f5e2" d="M457.54 140.59v58c0 2.35-1.55 4.69-4.65 6.49-6.21 3.58-16.28 3.58-22.48 0-3.11-1.8-4.66-4.14-4.66-6.49v-58Z" class="color76f5e2 svgShape"/><ellipse cx="441.65" cy="140.59" fill="#17a984" rx="15.9" ry="9.18" class="color17a984 svgShape"/><path fill="#00cbac" d="M459 136.12V151c0 2.57-1.69 5.13-5.08 7.08-6.77 3.91-17.75 3.91-24.53 0-3.38-1.95-5.08-4.51-5.08-7.08v-14.88Z" class="color00cbac svgShape"/><ellipse cx="441.65" cy="136.12" fill="#76f5e2" rx="17.34" ry="10.01" class="color76f5e2 svgShape"/><path fill="#ff8507" d="M450.36 108.54c2.66 2.11 3.5 13.12 3.5 19.49v7.4c0 1.81-1.19 3.61-3.58 5-4.77 2.75-12.5 2.75-17.27 0-2.39-1.38-3.58-3.18-3.58-5V128c0-6.37.83-17.71 3.5-19.49s14.77-2.08 17.43.03Z" class="colorff8507 svgShape"/><path fill="#613e4a" d="m487.91 347.5-.3.24a1.89 1.89 0 0 1-1.38.38s-.31-.23-.29-1.19c0-1.3.09-2.59.16-3.89.25-4.9.51-10-1.27-15.47a8 8 0 0 0-4.35-5.06 8.18 8.18 0 0 0-4.39-.69 9.66 9.66 0 0 0-6.55 3.93c-.83 1-1.62 2-2.38 3v-1.33a20.28 20.28 0 0 0-4.64-14 11.05 11.05 0 0 0-4.94-3.66 7.53 7.53 0 0 0-4.87 0h-.15c-.09-3.06-.23-6.1-.39-9.12l-3-.85c.19 3.73.35 7.51.43 11.3a20.67 20.67 0 0 0-4.35 3.53 38 38 0 0 0-10.75 25.92 24.65 24.65 0 0 0 1.88 10.83 7.32 7.32 0 0 0 4.22 4.14 4.59 4.59 0 0 0 4.9-.77c2.52-2.31 3.48-5.57 4.17-8.44 2.61-10.74 3.16-22.25 3-33.6a14.18 14.18 0 0 1 2.13-.89 4.27 4.27 0 0 1 2.68-.14 6.73 6.73 0 0 1 2.64 2.13 18.26 18.26 0 0 1 4.07 12.66 30.25 30.25 0 0 1-1.89 10c-.68 1.32-1.31 2.67-1.88 4l2.89 1.44a29.67 29.67 0 0 0 1.91-4.08 56.36 56.36 0 0 1 7.06-10.51c1.32-1.56 2.82-3.1 5.42-3.4a4 4 0 0 1 2.09.24 4.63 4.63 0 0 1 2.1 2.89c1.68 5.21 1.43 10.14 1.19 14.91-.07 1.31-.14 2.61-.17 3.93a3.8 3.8 0 0 0 2 3.54 5.08 5.08 0 0 0 3 .79Zm-41.17-2.4c-.68 2.84-1.55 5.78-3.84 7.88a2 2 0 0 1-2 .63 3.59 3.59 0 0 1-1.63-2 22.75 22.75 0 0 1-1.73-10.11A36.83 36.83 0 0 1 448 316.35c.52-.53 1.08-1.07 1.7-1.61.06 10.31-.6 20.66-2.96 30.36Z" class="color613e4a svgShape"/><ellipse cx="545.82" cy="440.97" opacity=".08" rx="44.12" ry="25.47" fill="#000000" class="color000 svgShape"/><path fill="#68d0fc" d="M582 433v4.57c0 5.35-3.54 10.7-10.61 14.78-14.14 8.17-37.06 8.17-51.21 0-7.07-4.08-10.6-9.43-10.6-14.78V433Z" class="color68d0fc svgShape"/><ellipse cx="545.82" cy="433.01" fill="#bef2fa" rx="36.21" ry="20.91" class="colorbef2fa svgShape"/><path fill="#68d0fc" d="M548.61 340.24v79.67a19.25 19.25 0 0 0 4 11.88H539a20.14 20.14 0 0 0 4-11.88v-79.67Z" class="color68d0fc svgShape"/><path fill="#bef2fa" d="M587.25 323.5a41.44 41.44 0 0 1-82.87 0c0-18.13 9.51-64.15 9.51-64.15h63.85s9.51 41.26 9.51 64.15Z" class="colorbef2fa svgShape"/><ellipse cx="545.82" cy="259.35" fill="#d7faff" rx="31.92" ry="18.43" class="colord7faff svgShape"/><ellipse cx="545.82" cy="259.35" fill="#bef2fa" rx="27.47" ry="14.39" class="colorbef2fa svgShape"/><ellipse cx="545.82" cy="433.01" fill="#68d0fc" rx="7.11" ry="4.11" class="color68d0fc svgShape"/><path fill="#ec0000" d="M582.71 322.05a36.89 36.89 0 1 1-73.78 0 96.15 96.15 0 0 1 .82-12l72.28-.65a122 122 0 0 1 .68 12.65Z" class="colorec0000 svgShape"/><ellipse cx="545.82" cy="310.91" fill="#ff4848" rx="36.21" ry="18.96" class="colorff4848 svgShape"/><path fill="#ffb91c" d="M448.69 107.21c3.88 2.24 3.88 5.88 0 8.13a15.59 15.59 0 0 1-14.08 0c-3.89-2.25-3.89-5.89 0-8.13a15.53 15.53 0 0 1 14.08 0Z" class="colorffb91c svgShape"/><path d="M424.21 873.72c-10.57-14.82-29.65-19-26.64-30.11s23.22-15.77 21.57-25.22c-1.29-7.37-11.48-12.32-13.56-13.33-13.23-6.44-33.61-6.63-49.89-5.69-42.77 2.46-84.5 15.79-113 35-3-10.32-11.37-20.22-25.16-28.18-35.25-20.35-92.4-20.35-127.65 0s-35.24 53.35 0 73.7c31.66 18.27 81 20.12 116.24 5.57a43.61 43.61 0 0 0 3.12 19.15c11.47 28.94 63.4 52.36 114.64 51.78 31.8-.37 66.07-9.11 86.84-26.14 20.28-16.6 25.75-39.33 13.49-56.53Zm-31 20.61c-10.51 1.63-21.59-2.56-24.74-9.36s2.81-13.62 13.32-15.25 21.58 2.57 24.74 9.36-2.77 13.63-13.28 15.25Z" opacity=".08" fill="#000000" class="color000 svgShape"/><path fill="#68d0fc" d="M410.19 807.26s-42.86-10.26-57.69-9.43c-62.9 3.62-136.42 71.46-136.42 71.46s0 6.6.19 11.18a40.28 40.28 0 0 0 2.89 13.18c10.44 26.35 57.73 47.68 104.39 47.14 29-.33 60.17-8.29 79.07-23.79 11.77-9.65 18.07-21.58 18.17-33 .06-6.47-.15-9.33-.15-9.33s-32.75-26.41-30-36.53c2.59-9.56 18.91-13.82 19.69-21.4.06-.53-.14-9.48-.14-9.48Zm-11.36 63.16c2.87 6.19-2.56 12.41-12.13 13.89s-19.7-2.31-22.53-8.53 2.56-12.4 12.13-13.89 19.7 2.34 22.53 8.53Z" class="color68d0fc svgShape"/><path fill="#bef2fa" d="M397.78 793.7c-12-5.86-30.6-6-45.42-5.18C274.43 793 200.29 837.09 219 884.33c10.45 26.35 57.74 47.69 104.4 47.15 29-.33 60.16-8.29 79.07-23.79 18.42-15.11 23.43-35.81 12.26-51.47-9.61-13.49-27-17.29-24.25-27.41s21.15-14.37 19.64-23c-1.12-6.68-10.44-11.19-12.34-12.11Zm.9 67.41c2.87 6.18-2.56 12.4-12.13 13.88s-19.65-2.33-22.53-8.52 2.56-12.41 12.13-13.89 19.66 2.34 22.53 8.53Z" class="colorbef2fa svgShape"/><ellipse cx="320.78" cy="816.03" fill="#ec0000" rx="23.24" ry="13.36" transform="translate(-43.03 18.25)" class="colorec0000 svgShape"/><ellipse cx="270.28" cy="845.18" fill="#ff8507" rx="21.06" ry="12.48" transform="rotate(-2.87 270.035 844.592)" class="colorff8507 svgShape"/><ellipse cx="258.19" cy="880.68" fill="#00cbac" rx="17.98" ry="10.65" transform="rotate(-2.87 257.957 880.239)" class="color00cbac svgShape"/><ellipse cx="300.48" cy="905.1" fill="#1d79e6" rx="15.15" ry="8.98" transform="rotate(-2.87 300.29 904.467)" class="color1d79e6 svgShape"/><path fill="#274fb4" d="M384.22 803.09s-1.21 25.39-6.1 39.08c-14 39.13-50.25 111.56-57.92 108.82s10.19-81.75 24.17-120.88c5.84-16.35 20.74-33.85 20.74-33.85Z" class="color274fb4 svgShape"/><path fill="#1d79e6" d="M386.77 798.4s-1.39 3.89-2 5.47-2.16 2.78-4.68 3.24c-5 .92-11.79-1.5-15.1-5.4-1.65-1.94-2.13-3.89-1.57-5.47s2-5.47 2-5.47Z" class="color1d79e6 svgShape"/><path fill="#68d0fc" d="M385.2 792.92c3.31 3.9 1.91 7.8-3.11 8.72s-11.79-1.5-15.1-5.4-1.92-7.8 3.11-8.71a17.7 17.7 0 0 1 15.1 5.39Z" class="color68d0fc svgShape"/><path fill="#ff8507" d="M362.43 775.82a19.56 19.56 0 0 0 38.65 6.06c1.68-10.68 1.6-27.89-12.55-54.53a73.65 73.65 0 0 1-6 17.18c-8.88 17.78-18.44 20.65-20.1 31.29Z" class="colorff8507 svgShape"/><path fill="#ffb91c" d="M386.86 744.11c4.19 12.25 4.21 21.23 3.43 27.6a17.18 17.18 0 0 1-17.45 15.08 17.1 17.1 0 0 1-3.52-12.67c1.15-9.37 9.45-12.18 16.68-28 .31-.7.59-1.36.86-2.01Z" class="colorffb91c svgShape"/><path d="m1152.36 911.59 51.92 29.94 72.92-42.26-51.92-29.94-72.92 42.26zM1323.63 880.71l29.94 17.29c5.57 3.21 14.59 3.21 20.16 0s5.56-8.42 0-11.64l-30-17.29c-5.57-3.21-14.59-3.21-20.15 0s-5.52 8.43.05 11.64Z" opacity=".08" fill="#000000" class="color000 svgShape"/><ellipse cx="1313.49" cy="896.31" opacity=".08" rx="24.11" ry="13.7" fill="#000000" class="color000 svgShape"/><path fill="#02b295" d="m1225.49 745.51-62.87 36.31-22.01 38.23v77.73l42.44 24.48 53.64-53.07 22.01-37.07v-8.5l9.24-53.63-42.45-24.48z" class="color02b295 svgShape"/><path fill="#00cbac" d="m1267.94 769.99-62.88 36.3-22.01 38.23V922.26l21.02 12.11 62.87-36.3 22.01-37.08v-77.73l-21.01-13.27z" class="color00cbac svgShape"/><ellipse cx="1236" cy="852.18" fill="#ffffff" rx="44.13" ry="25.17" transform="rotate(-65.2 1241.647 849.226)" class="colorfff svgShape"/><path fill="#76f5e2" d="M1150.78 788.67h44.11v49h-44.11z" transform="rotate(-60.07 1172.848 813.174)" class="color76f5e2 svgShape"/><path fill="#d7faff" d="m1225.49 745.51 42.45 24.48-62.88 36.3-42.44-24.47 62.87-36.31z" class="colord7faff svgShape"/><path fill="#76f5e2" d="M1234.17 752.13v23.77c0 2.8-1.84 5.59-5.53 7.72-7.38 4.26-19.34 4.26-26.72 0-3.69-2.13-5.53-4.92-5.53-7.72v-23.77Z" class="color76f5e2 svgShape"/><ellipse cx="1215.28" cy="752.13" fill="#8fd4ff" rx="18.89" ry="10.91" class="color8fd4ff svgShape"/><path fill="#02b295" d="m1207.03 734.36-22.53 13.01 8.24 17.77 30.79 4.76 22.53-13.01-8.25-17.77-30.78-4.76z" class="color02b295 svgShape"/><path fill="#d7faff" d="m1207.03 717.93-22.53 13.02 8.24 17.77 30.79 4.76 22.53-13.01-8.25-17.77-30.78-4.77z" class="colord7faff svgShape"/><path fill="#76f5e2" d="M1184.5 730.95v16.42l8.24 17.77v-16.42l-8.24-17.77z" class="color76f5e2 svgShape"/><path fill="#00cbac" d="M1223.53 753.48v16.42l22.53-13.01v-16.42l-22.53 13.01z" class="color00cbac svgShape"/><path fill="#ff4848" d="m1237.62 854.08-1.4-.54a.51.51 0 0 0 0 .31 18.68 18.68 0 0 0-1.52-2.33 11.89 11.89 0 0 1-.7-1 21.54 21.54 0 0 1-2-5.77 14.66 14.66 0 0 1 1.89-10 6.71 6.71 0 0 1 4.52-3.31 3 3 0 0 1 2.45.79c1.45 1.43 1.61 4.81.48 10a82.84 82.84 0 0 1-3.64 11.87Zm1.11-21.23h-.24a5.28 5.28 0 0 0-3.42 2.63 13.33 13.33 0 0 0-1.69 9 20.3 20.3 0 0 0 1.92 5.38c.07.12.3.43.58.83s.69 1 .93 1.32a76.45 76.45 0 0 0 3-10.08c1-4.49 1-7.65-.07-8.66a1.38 1.38 0 0 0-1.01-.42Z" class="colorff4848 svgShape"/><path fill="#ff4848" d="M1227.58 857.91a3.4 3.4 0 0 1-2.63-1.09 4.28 4.28 0 0 1-.75-3.69 6.51 6.51 0 0 1 4.77-5.38c4-.76 6.88 3.26 8.42 5.42l.61.91-.73.39c-3 1.61-6.54 3.35-9.55 3.44Zm2.38-8.76a3.58 3.58 0 0 0-.72.07 5 5 0 0 0-3.56 4.16 3 3 0 0 0 .4 2.46 2 2 0 0 0 1.59.58c2.47-.08 5.44-1.46 8.14-2.87-1.62-2.23-3.52-4.4-5.81-4.4Z" class="colorff4848 svgShape"/><path fill="#ff4848" d="m1235.42 855.41.84-1.91a59.1 59.1 0 0 1 6.41-11.77c2.21-2.91 4.69-4.14 6.47-3.18a2.39 2.39 0 0 1 1.21 1.58c.34 1.33-.18 3.22-1.39 5.06-3 4.57-8.45 7.53-11.37 9.12Zm12.43-15.68c-1.08 0-2.61 1.09-4 2.91a50.08 50.08 0 0 0-5.32 9.44c2.89-1.64 6.86-4.19 9.18-7.71a5.68 5.68 0 0 0 1.18-3.87 1 1 0 0 0-.46-.64 1.31 1.31 0 0 0-.58-.13Z" class="colorff4848 svgShape"/><path fill="#ff4848" d="M1236.24 873.65a31 31 0 0 1 1.24-22.85l1.32.71a30 30 0 0 0-1.14 21.68Z" class="colorff4848 svgShape"/><path fill="#42a4f7" d="m1377.9 863.09-19.6 31.7s-49.65-28.72-52.07-30.33c-2.17-1.45-3.5-4.31-3.5-8.29 0-8.39 5.92-18.61 13.22-22.83 3.41-2 6.52-2.28 8.86-1.19 2.68 1.23 53.09 30.94 53.09 30.94Z" class="color42a4f7 svgShape"/><ellipse cx="1368.14" cy="878.95" fill="#1d79e6" rx="18.66" ry="10.77" transform="rotate(-59.77 1368.216 878.955)" class="color1d79e6 svgShape"/><ellipse cx="1368.14" cy="878.95" fill="#274fb4" rx="15.25" ry="7.98" transform="rotate(-59.77 1368.216 878.955)" class="color274fb4 svgShape"/><path fill="#274fb4" d="M1331.81 876v17.2c0 2.76-1.82 5.52-5.47 7.63-7.3 4.22-19.14 4.22-26.45 0-3.65-2.11-5.47-4.87-5.47-7.63V876Z" class="color274fb4 svgShape"/><ellipse cx="1313.12" cy="875.97" fill="#1d79e6" rx="18.7" ry="10.8" class="color1d79e6 svgShape"/><path fill="#274fb4" d="M1328.78 825.73v48.35c0 2.31-1.53 4.63-4.59 6.39-6.11 3.53-16 3.53-22.15 0-3.06-1.76-4.59-4.08-4.59-6.39v-48.35Z" class="color274fb4 svgShape"/><ellipse cx="1313.12" cy="825.73" fill="#1d79e6" rx="15.67" ry="9.05" class="color1d79e6 svgShape"/><path fill="#ec0000" d="M1321.36 786.8c3.13 4.32 3.64 36.45 3.64 38.14s-1.16 3.37-3.48 4.66c-4.64 2.57-12.17 2.57-16.81 0-2.32-1.29-3.48-3-3.48-4.66s1.13-27.29 3.86-32.62 13.15-9.84 16.27-5.52Z" class="colorec0000 svgShape"/><path fill="#ff4848" d="M1317.12 785.06c4.29-.08 6 2.85 3.77 6.53a15.57 15.57 0 0 1-11.78 6.8c-4.29.08-6-2.85-3.77-6.53a15.57 15.57 0 0 1 11.78-6.8Z" class="colorff4848 svgShape"/><path fill="#42a4f7" d="M208.17 861.49a162.71 162.71 0 0 0-10 29.24c-2 8.81-1.8 23.65-1.8 23.65s7.83-4.16 10.2-8.28 15.44-25.86 15.76-30.37c.87-12.25-3.46-16-3.46-16Z" class="color42a4f7 svgShape"/><path fill="#2c89ff" d="M213.35 862.66s-3.72 12.74-4 14.5-2.73 12.87 0 12.23 9-11.95 8.86-15.8a75.74 75.74 0 0 0-1.92-10.93Z" class="color2c89ff svgShape"/><path fill="#42a4f7" d="M226.81 852.85s14.18-5.61 28.7-2.35 29.83 10.72 29.83 10.72a33.17 33.17 0 0 1-13.46 5.38c-9.23 1.33-12.56 1.14-20.85 3-14 3.07-35.48-8.76-35.48-8.76Z" class="color42a4f7 svgShape"/><path fill="#2c89ff" d="M216.31 859.91c5.85-1.13 12.08-4.43 23.61-3s20.72 3.56 16 5.27-12.18-2.14-15.81 0-19.19.45-19.19.45Z" class="color2c89ff svgShape"/><path fill="#68d0fc" d="M217.73 793.39c-33.19-19.16-87-19.16-120.2 0s-33.19 50.24 0 69.4 87 19.17 120.2 0 33.19-50.23 0-69.4Zm-7.93 60.14c-2.4 1.39-23.27 2.18-27 3.14-22.62 5.87-50.11 3.44-68.68-7.28-24-13.86-24-36.33 0-50.19s62.92-13.86 86.93 0c15.24 8.79 24.39 21.49 20.28 32.82-1.01 2.98-6.7 18.72-11.53 21.51Z" class="color68d0fc svgShape"/><path fill="#42a4f7" d="M213.34 854.74c-1.13.43-14.94 1.74-21.07 6.3s-13.24 8.27-13 9.36 11.53-2.86 14.81-3.39 10.52-3.56 15-4.35 4.26-7.92 4.26-7.92ZM218.23 853.46c.05-.44 9.16-12.83 10.44-15s2.85-2.77 2.14 1.82-.29 10.42-2.85 11.13-4.7 4.56-6.26 4.35-3.47-2.3-3.47-2.3Z" class="color42a4f7 svgShape"/><path fill="#1d79e6" d="M198.27 855.14s.12-3.27 5.61-7.39c.78-.59 5.48-2.14 6.34-2.67 2.23-1.37 3-3.26 4.22-3.9 1.84-1 2.69-1.11 3.51-.46 1.53 1.23 8.18 10.72 7.23 17.17s-9.74 10.37-13.41 8-7.2-8.19-13.5-10.75Z" class="color1d79e6 svgShape"/><path fill="#2c89ff" d="M204.19 847.52a14.26 14.26 0 0 1 12.06 5.94c4.7 6.57-.43-2.4-.64-6.46s-2.92-4.1-2.92-4.1-2.62 2.57-8.5 4.62Z" class="color2c89ff svgShape"/><path fill="#ec0000" d="M248.8 750.88v32.46c0 15.54-10.27 31.08-30.8 42.94-41.07 23.72-107.66 23.72-148.73 0-20.54-11.86-30.8-27.4-30.8-42.94v-32.46Z" class="colorec0000 svgShape"/><ellipse cx="143.63" cy="750.88" fill="#f52121" rx="105.17" ry="60.72" class="colorf52121 svgShape"/><path fill="#ff4848" d="M266.71 721.09c2.37 9.88-5.32 20-10.42 30.88-4 8.62-5 21.25-13.9 29.69-10.4 9.86-27 12.84-41.16 19.8C188 808 175.84 819.5 161 823.06s-30.89-1.21-45.65-1c-15.75.21-31.92 5.09-45.66 1-11.69-3.48-18.34-14.3-25.84-20.16-9.49-7.4-20.93-12.92-23.3-22.8s19.82-78.79 103.53-93.41 140.27 24.52 142.63 34.4Z" class="colorff4848 svgShape"/><path fill="#4a2730" d="M122.09 703c3.42 1 4.08 3.85 1.48 6.3a12.37 12.37 0 0 1-10.92 2.55c-3.42-1-4.08-3.85-1.48-6.3a12.4 12.4 0 0 1 10.92-2.55ZM117.37 679.27a4.49 4.49 0 1 1-4.48-4.49 4.49 4.49 0 0 1 4.48 4.49Z" class="color4a2730 svgShape"/><path fill="#4a2730" d="M110.06 710.11s-6.89-11.52-1.41-32.31c3.27-1.28 8.59 2.53 8.59 2.53s-3.73 13.07 7.46 24.37Z" class="color4a2730 svgShape"/><path d="m485.96 512.56 185.92-108.77L864.2 512.4 674.95 621.67 485.96 512.56z" opacity=".08" fill="#000000" class="color000 svgShape"/><path fill="#bef2fa" d="m760.82 405.37-85.86 49.58-86.12-49.71 85.86-49.59 86.12 49.72z" class="colorbef2fa svgShape"/><path fill="#42a4f7" d="m760.82 405.37-85.86 49.58v3.15l85.86-49.59v-3.14z" class="color42a4f7 svgShape"/><path fill="#68d0fc" d="m674.95 454.95-86.11-49.7v3.13l86.11 49.71v-3.14z" class="color68d0fc svgShape"/><path fill="#bef2fa" d="m776.39 501.9 33.16 19.15 33.05-19.07-33.16-19.15-33.05 19.07z" class="colorbef2fa svgShape"/><path fill="#1d79e6" d="m776.39 501.9 33.17 19.15v10.52l-33.17-19.15V501.9z" class="color1d79e6 svgShape"/><path fill="#42a4f7" d="m809.56 521.06 33.04-19.08v10.52l-33.04 19.08v-10.52z" class="color42a4f7 svgShape"/><path fill="#68d0fc" d="M750.92 467a35 35 0 0 0-7.42-5.85 35 35 0 0 1 23.33 10.64l42.58 44.13L784 501.23Z" class="color68d0fc svgShape"/><path fill="#bef2fa" d="m708.12 579.62-33.16 19.15-33.05-19.07 33.16-19.15 33.05 19.07z" class="colorbef2fa svgShape"/><path fill="#1d79e6" d="m708.12 579.62-33.17 19.15v10.53l33.17-19.16v-10.52z" class="color1d79e6 svgShape"/><path fill="#42a4f7" d="m674.95 598.78-33.04-19.08v10.52l33.04 19.08v-10.52z" class="color42a4f7 svgShape"/><path fill="#bef2fa" d="m573.48 501.9-33.15 19.15-33.05-19.07 33.15-19.15 33.05 19.07z" class="colorbef2fa svgShape"/><path fill="#1d79e6" d="m573.48 501.9-33.16 19.15v10.52l33.16-19.15V501.9z" class="color1d79e6 svgShape"/><path fill="#42a4f7" d="m540.32 521.06-33.04-19.08v10.52l33.04 19.08v-10.52zM699.22 509.07a49.91 49.91 0 0 1 24.91-43.19 35.05 35.05 0 0 1 42.76 6L809.48 516l24.22-14-79.37-82.25-79.39 45.84v128.1l24.28-14Z" class="color42a4f7 svgShape"/><path fill="#68d0fc" d="m595.56 419.78-79.35 82.27L540.45 516 583 471.86a35 35 0 0 1 42.75-6A49.88 49.88 0 0 1 650.71 509v70.7l24.23 14V465.62Z" class="color68d0fc svgShape"/><path fill="#1d79e6" d="m754.33 412.28-79.38 45.82v7.51l79.38-45.83v-7.5z" class="color1d79e6 svgShape"/><path fill="#42a4f7" d="m674.95 458.11-79.37-45.84v7.51l79.37 45.84v-7.51z" class="color42a4f7 svgShape"/><path fill="#1d79e6" d="m749.01 396.23-74.06 42.81v9.79l74.06-42.81v-9.79z" class="color1d79e6 svgShape"/><path fill="#42a4f7" d="m674.95 439.05-74.28-42.95v9.79l74.28 42.95v-9.79z" class="color42a4f7 svgShape"/><path fill="#1d79e6" d="M599 467a35.22 35.22 0 0 1 7.41-5.85 35 35 0 0 0-23.32 10.64l-42.59 44.13 25.47-14.7Z" class="color1d79e6 svgShape"/><g clip-path="url(#a)" fill="#000000" class="color000 svgShape"><path fill="#bef2fa" d="M673.62 433.15h2.68v20.49h-2.68zM665.42 428.23h2.68v20.49h-2.68zM657.22 423.31h2.68v20.49h-2.68zM649.03 418.39h2.68v20.49h-2.68zM640.83 413.48h2.68v20.49h-2.68zM632.63 408.56h2.68v20.49h-2.68zM624.44 403.64h2.68v20.49h-2.68zM616.24 398.72h2.68v20.49h-2.68zM608.05 393.8h2.68v20.49h-2.68zM599.85 388.89h2.68v20.49h-2.68zM681.81 428.23h2.68v20.49h-2.68zM690.01 423.31h2.68v20.49h-2.68zM698.21 418.39h2.68v20.49h-2.68zM706.4 413.48h2.68v20.49h-2.68zM714.6 408.56h2.68v20.49h-2.68zM722.79 403.64h2.68v20.49h-2.68zM730.99 398.72h2.68v20.49h-2.68zM739.19 393.8h2.68v20.49h-2.68zM747.38 388.89h2.68v20.49h-2.68z" class="colorbef2fa svgShape"/></g><path fill="#bef2fa" d="m754.33 390.05-79.37 45.85-79.38-45.71 79.37-45.85 79.38 45.71z" class="colorbef2fa svgShape"/><path fill="#f2efe7" d="m709.06 330.42-34.1 19.69-34.11-19.64 34.1-19.69 34.11 19.64z" class="colorf2efe7 svgShape"/><path fill="#42a4f7" d="m754.33 390.05-79.37 45.85v3.14l79.37-45.84v-3.15z" class="color42a4f7 svgShape"/><path fill="#68d0fc" d="m674.95 435.9-79.37-45.71v3.13l79.37 45.72v-3.14z" class="color68d0fc svgShape"/><path fill="#bef2fa" d="m711.6 318.3-36.65 21.13-36.65-21.08 36.65-21.19 36.65 21.14z" class="colorbef2fa svgShape"/><path fill="#42a4f7" d="m711.6 318.3-36.64 21.16v3.14l36.64-21.15v-3.15z" class="color42a4f7 svgShape"/><path fill="#68d0fc" d="m674.95 339.46-36.65-21.11v3.14l36.65 21.11v-3.14z" class="color68d0fc svgShape"/><path fill="#42a4f7" d="m687.26 356.36 15.25-8.86a177.13 177.13 0 0 0 21.8 48.5l11.3-6.55c-19.67-30.59-26.55-59-26.55-59L675 350.14v74.41l12.31-7ZM702.7 318c-10.69-94.08-13-220.68-13-220.68l-14.7 8.52V334Z" class="color42a4f7 svgShape"/><path fill="#68d0fc" d="M647.19 318c10.7-94.08 13-220.66 13-220.66l14.81 8.5V334ZM640.83 330.42s-6.88 28.41-26.54 59l11.27 6.52a177.25 177.25 0 0 0 21.8-48.48l16.36 9.43v61.19l11.22 6.47v-74.41ZM724.28 396a177.91 177.91 0 0 1-21.81-48.56l-6.15 3.56s4.14 17.09 15.45 37.77Z" class="color68d0fc svgShape"/><path fill="#1d79e6" d="M625.58 396a177.79 177.79 0 0 0 21.82-48.6l6.15 3.57s-4.14 17.09-15.45 37.77ZM709.06 322.91l-34.11 19.69v7.51l34.11-19.69v-7.51z" class="color1d79e6 svgShape"/><path fill="#42a4f7" d="m674.95 342.61-34.1-19.64v7.5l34.1 19.64v-7.5z" class="color42a4f7 svgShape"/><path fill="#bef2fa" d="m691.06 85.89-16.1 9.29-16.11-9.26 16.11-9.32 16.1 9.29z" class="colorbef2fa svgShape"/><path fill="#42a4f7" d="m691.06 85.89-16.1 9.29v3.14l16.1-9.28v-3.15z" class="color42a4f7 svgShape"/><path fill="#68d0fc" d="m674.95 95.18-16.1-9.26v3.13l16.1 9.27v-3.14z" class="color68d0fc svgShape"/><path fill="#1d79e6" d="m689.74 89.8-14.79 8.53v7.51l14.79-8.54v-7.5z" class="color1d79e6 svgShape"/><path fill="#42a4f7" d="m674.95 98.34-14.79-8.52v7.5l14.79 8.52v-7.5z" class="color42a4f7 svgShape"/><path fill="#68d0fc" d="M684.91 82.33c0-5.73-9.95-18-9.95-18v26.88l9.95-5.73Z" class="color68d0fc svgShape"/><path fill="#68d0fc" d="M675 64.35s-10 11.7-10 18v3.14l10 5.72Z" class="color68d0fc svgShape"/><path fill="#68d0fc" d="m677.61 37.11-2.67-3.09-2.67 3.09V73.9h5.34V37.11z" class="color68d0fc svgShape"/><ellipse cx="487.48" cy="584.72" opacity=".08" rx="120.49" ry="69.56" fill="#000000" class="color000 svgShape"/><ellipse cx="487.78" cy="574.23" fill="#68d0fc" rx="120.49" ry="69.56" class="color68d0fc svgShape"/><ellipse cx="487.78" cy="566.93" fill="#bef2fa" rx="120.49" ry="69.56" class="colorbef2fa svgShape"/><path fill="#ff8507" d="m525.98 623.78 14.13-27.65V592l-51.22-4.6-36.1 20.12v3.78l73.19 12.48z" class="colorff8507 svgShape"/><path fill="#ffb91c" d="M525.98 619.65 540.11 592l-51.22-8.73-36.1 23.9 73.19 12.48z" class="colorffb91c svgShape"/><path fill="#ff8507" d="M483.94 597.66c-.67 1.26.66 2.34 3 2.39s4.71-.93 5.38-2.2-.65-2.33-2.95-2.39-4.76.93-5.43 2.2ZM494.21 605.41c.4 1.68 3.66 2.8 7.27 2.51s6.21-1.89 5.8-3.56-3.66-2.8-7.27-2.51-6.21 1.89-5.8 3.56ZM424.51 585v-54.18h133.94V585Z" class="colorff8507 svgShape"/><path fill="#ffb91c" d="m424.51 530.82 75.19-64c15.1 5.92 27.95 13.55 37.76 22.44 13.71 12.42 21 26.84 21 41.56Z" class="colorffb91c svgShape"/><ellipse cx="504.15" cy="494.35" fill="#ff8507" rx="10.31" ry="6.25" class="colorff8507 svgShape"/><ellipse cx="515.63" cy="500.59" fill="#ff8507" rx="14.39" ry="8.71" class="colorff8507 svgShape"/><ellipse cx="474.97" cy="515.16" fill="#ff8507" rx="10.97" ry="6.64" class="colorff8507 svgShape"/><path fill="#ff4848" d="M538.86 557.67c1.29 5.37-3.05 11-9.7 12.61s-13.07-1.47-14.36-6.85 3.05-11 9.7-12.61 13.07 1.47 14.36 6.85ZM512.41 544.58c.88 3.67-2.1 7.53-6.67 8.63s-9-1-9.85-4.67 2.1-7.53 6.67-8.62 8.97.99 9.85 4.66ZM465.16 569.13c-1.32 2.9-5.3 3.92-8.91 2.28s-5.46-5.31-4.14-8.2 5.3-3.93 8.9-2.29 5.46 5.31 4.15 8.21Z" class="colorff4848 svgShape"/><path fill="#bde6ff" d="M433.54 601s.36-3.22 17.24-13c11.25-6.5 28.43-9.66 38.63-11 3.41-.47 8.46-4 8.46-4v3s-23.72 29.92-29.56 33.36c-13.26 7.8-24.46 5.65-24.46 5.65Z" class="colorbde6ff svgShape"/><path fill="#e3f3ff" d="M433.54 597.89s.36-3.22 17.24-13 47.09-12 47.09-12-23.72 29.92-29.56 33.36c-13.26 7.8-24.46 5.64-24.46 5.64Z" class="colore3f3ff svgShape"/><path fill="#ec0000" d="m431.05 602.58-2.24 1.3c-8 4.59-17.56 8-27.87 10.67-2.27.58-11.81 4.47-11.81 4.47s-.07 3.31.06 6.3c.11 2.64 1.77 5.26 5 7.33 7.67 4.93 20.81 5.09 28.81.47a13.67 13.67 0 0 0 4.18-3.56c3.12-4.19 10.07-9.58 14.91-13.16 2-1.49-11-13.82-11-13.82Z" class="colorec0000 svgShape"/><path fill="#e60026" d="M444.87 611c0 5.15-3.63 7.23-8.12 4.64s-8.12-8.87-8.12-14 3.64-7.24 8.12-4.65 8.12 8.83 8.12 14.01Z" class="colore60026 svgShape"/><path fill="#ff4848" d="m431 596.37-2.25 1.34c-8 4.6-17.56 8.06-27.87 10.68a23.16 23.16 0 0 0-6.23 2.51c-7.16 4.27-7.4 11.17-.52 15.59 7.66 4.93 20.8 5.08 28.81.46a13.63 13.63 0 0 0 4.18-3.55c3.12-4.19 11.28-10.61 17.69-13.53a18.31 18.31 0 0 0-5.48-10.94c-4.91-4.79-8.33-2.52-8.33-2.52Z" class="colorff4848 svgShape"/><path d="M1110.7 695.39 916.65 583.1l-133.63 77.49 194.05 112.29 133.63-77.49z" opacity=".08" fill="#000000" class="color000 svgShape"/><path fill="#42a4f7" d="M1022.89 735.63v-5.15l-45.83 26.47v5.15l45.83-26.47z" class="color42a4f7 svgShape"/><path fill="#1d79e6" d="M977.06 756.95v5.15l-58.11-33.56v-5.15l58.11 33.56z" class="color1d79e6 svgShape"/><path fill="#d7faff" d="m918.95 723.39 58.11 33.56 45.83-26.47-58.12-33.55-45.82 26.46z" class="colord7faff svgShape"/><g data-name="MESH" fill="#000000" class="color000 svgShape"><path fill="#42a4f7" d="M1092.09 695.69v-5.15L1046.26 717v5.15l45.83-26.46z" class="color42a4f7 svgShape"/><path fill="#1d79e6" d="M1046.26 717v5.15l-58.12-33.55v-5.15l58.12 33.55z" class="color1d79e6 svgShape"/><path fill="#d7faff" d="m988.14 683.45 58.12 33.55 45.83-26.46-58.12-33.55-45.83 26.46z" class="colord7faff svgShape"/></g><g data-name="MESH" fill="#000000" class="color000 svgShape"><path fill="#42a4f7" d="M905.58 667.67v-5.15l-45.83 26.46v5.15l45.83-26.46z" class="color42a4f7 svgShape"/><path fill="#1d79e6" d="M859.75 688.98v5.15l-58.12-33.55v-5.15l58.12 33.55z" class="color1d79e6 svgShape"/><path fill="#d7faff" d="m801.63 655.43 58.12 33.55 45.83-26.46-58.12-33.55-45.83 26.46z" class="colord7faff svgShape"/></g><g data-name="MESH" fill="#000000" class="color000 svgShape"><path fill="#42a4f7" d="M974.77 627.73v-5.15l-45.83 26.46v5.15l45.83-26.46z" class="color42a4f7 svgShape"/><path fill="#1d79e6" d="M928.94 649.04v5.15l-58.11-33.56v-5.15l58.11 33.56z" class="color1d79e6 svgShape"/><path fill="#d7faff" d="m870.83 615.48 58.11 33.56 45.83-26.46-58.12-33.56-45.82 26.46z" class="colord7faff svgShape"/></g><g data-name="MESH" fill="#000000" class="color000 svgShape"><path fill="#274fb4" d="M1046.27 606.17v106.14l-49.88-28.8V577.38l49.88 28.79z" class="color274fb4 svgShape"/><path fill="#1d79e6" d="M1084.19 584.28v106.13l-37.92 21.9V606.17l37.92-21.89z" class="color1d79e6 svgShape"/></g><g data-name="MESH" fill="#000000" class="color000 svgShape"><path fill="#274fb4" d="M929.45 538.71v106.13l-49.87-28.79V509.91l49.87 28.8z" class="color274fb4 svgShape"/><path fill="#50a6e8" d="M967.37 516.81v106.14l-37.92 21.89V538.71l37.92-21.9z" class="color50a6e8 svgShape"/></g><g data-name="MESH" fill="#000000" class="color000 svgShape"><path fill="#42a4f7" d="M859.8 578.92v106.14l-49.88-28.8V550.13l49.88 28.79z" class="color42a4f7 svgShape"/><path fill="#1d79e6" d="M897.72 557.03v106.13l-37.92 21.9V578.92l37.92-21.89z" class="color1d79e6 svgShape"/><ellipse cx="834.86" cy="607" fill="#d7faff" rx="14.43" ry="29.06" transform="rotate(-5.93 834.762 606.959)" class="colord7faff svgShape"/></g><path fill="#42a4f7" d="M976.63 646.37v106.14l-49.87-28.8V617.58l49.87 28.79z" class="color42a4f7 svgShape"/><path fill="#1d79e6" d="M1014.55 624.48v106.14l-37.92 21.89V646.37l37.92-21.89z" class="color1d79e6 svgShape"/><ellipse cx="951.69" cy="677.24" fill="#d7faff" rx="14.43" ry="29.06" transform="rotate(-5.93 951.632 677.186)" class="colord7faff svgShape"/><g data-name="MESH" fill="#000000" class="color000 svgShape"><path fill="#68d0fc" d="M1092.87 584.02v-5.15l-115.81 66.86v5.15l115.81-66.86zM977.06 645.73v5.15l-58.11-33.55v-5.15l58.11 33.55z" class="color68d0fc svgShape"/><path fill="#d7faff" d="m918.95 612.18 58.11 33.55 115.81-66.86-58.12-33.55-115.8 66.86z" class="colord7faff svgShape"/></g><g data-name="MESH" fill="#000000" class="color000 svgShape"><path fill="#68d0fc" d="M975.97 516.53v-5.15l-115.81 66.87v5.15l115.81-66.87zM860.16 578.25v5.15l-58.12-33.56v-5.15l58.12 33.56z" class="color68d0fc svgShape"/><path fill="#d7faff" d="m802.04 544.69 58.12 33.56 115.81-66.87-58.12-33.55-115.81 66.86z" class="colord7faff svgShape"/></g><g data-name="MESH" fill="#000000" class="color000 svgShape"><path fill="#1d79e6" d="m859.66 518.43 107.58-62.12v55.28L859.66 573.7v-55.27z" class="color1d79e6 svgShape"/><path fill="#42a4f7" d="M859.66 573.7v-55.27l-49.88-28.79v55.27l49.88 28.79z" class="color42a4f7 svgShape"/><path fill="#c7ebff" d="m967.24 456.31-49.87-28.79-107.59 62.12 49.88 28.79 107.58-62.12z" class="colorc7ebff svgShape"/><path fill="#1d79e6" d="M850.84 560.09v-35.73l-32.24-18.61v35.73l32.24 18.61z" class="color1d79e6 svgShape"/></g><path fill="#1d79e6" d="M1046.27 610.94v28.35a13.24 13.24 0 0 0-19.86-11.46 23.69 23.69 0 0 0-11.86 20.53v-19.11Z" class="color1d79e6 svgShape"/><path fill="#42a4f7" d="M926.76 561.46v51c0-23.39-14-47.14-35.38-59.46a21.05 21.05 0 0 0-31.58 18.23l-.14 2.49v-50.96ZM976.63 641.24v-55.28l-49.87-28.79v55.27l49.87 28.8z" class="color42a4f7 svgShape"/><path fill="#1d79e6" d="M967.81 627.62v-35.73l-32.23-18.61v35.73l32.23 18.61zM976.63 585.96l107.59-62.11v55.27l-107.59 62.12v-55.28z" class="color1d79e6 svgShape"/><path fill="#c7ebff" d="M1092.87 514.28 918.2 413.26l-116.08 66.77 174.67 101.02 116.08-66.77z" class="colorc7ebff svgShape"/><path fill="#274fb4" d="m986.91 589.76 87.02-50.34v35.9l-87.02 50.34v-35.9z" class="color274fb4 svgShape"/><g data-name="MESH" fill="#000000" class="color000 svgShape"><path fill="#1d79e6" d="M1081.86 511.1v-23.03l-104.81 60.52v23.02l104.81-60.51z" class="color1d79e6 svgShape"/><path fill="#42a4f7" d="m977.05 548.59-158.42-91.46v23.02l158.42 91.46v-23.02z" class="color42a4f7 svgShape"/><path fill="#c7ebff" d="m923.44 396.61-104.81 60.52 158.42 91.46 104.81-60.52-158.42-91.46z" class="colorc7ebff svgShape"/></g><g data-name="MESH" fill="#000000" class="color000 svgShape"><path fill="#68d0fc" d="M1092.87 489.19v-9.44l-115.81 66.86v9.44l115.81-66.86zM977.06 546.61 802.03 445.55V455l175.03 101.05v-9.44z" class="color68d0fc svgShape"/><path fill="#d7faff" d="m977.06 546.61 115.81-66.86-175.04-101.06-115.8 66.86 175.03 101.06z" class="colord7faff svgShape"/></g><g data-name="MESH" fill="#000000" class="color000 svgShape"><path fill="#1d79e6" d="M1012.59 467.99v-13.54l-55.9 32.27v13.54l55.9-32.27z" class="color1d79e6 svgShape"/><path fill="#42a4f7" d="m956.69 486.72-74.38-42.94v13.54l74.38 42.94v-13.54z" class="color42a4f7 svgShape"/><path fill="#43bcff" d="m1012.59 454.45-55.9 32.27-74.38-42.94 55.9-32.28 74.38 42.95z" class="color43bcff svgShape"/></g><ellipse cx="947.5" cy="450.06" fill="#42a4f7" rx="28.44" ry="16.38" class="color42a4f7 svgShape"/><path fill="#42a4f7" d="M919.06 443.28h56.88v7.48h-56.88z" transform="rotate(180 947.495 447.02)" class="color42a4f7 svgShape"/><ellipse cx="947.5" cy="443.9" fill="#d7faff" rx="28.44" ry="16.38" class="colord7faff svgShape"/><path fill="#68d0fc" d="M1092.87 523.67v-9.44l-115.81 66.86v9.44l115.81-66.86zM977.06 590.53v-9.44L802.03 480.03v9.45l175.03 101.05z" data-name="MESH" class="color68d0fc svgShape"/><path d="M835.52 767.29 595.41 642.54l-3.66 44.24.1 5.73a146 146 0 0 0-46.16-7.16c-50.07 0-90.66 23-90.66 51.37s40.59 51.37 90.66 51.37a150.24 150.24 0 0 0 38.46-4.85l-.37.11-.5 6 14.78-1.22-.07 9.31Zm-246 14.41 1.07-.35-.73.25Zm5.06-1.72.73-.27-.75.29Z" opacity=".08" fill="#000000" class="color000 svgShape"/><path fill="#00cbac" d="m606.65 787.67 200.52-25.44-199.52-103.58-1 129.02z" class="color00cbac svgShape"/><path fill="#76f5e2" d="m592.67 779.94 214.5-17.71L602.9 656.11l-10.23 123.83z" class="color76f5e2 svgShape"/><path fill="#ff8507" d="M644.56 702c-25.6-14.78-45.19-23.15-77.25-29.59-17.45-3.51-18.45-17.57-1.56-21.89 50.71-13 101.68-9.73 143.26 14.27s51.11 59.5 28.62 88.78c-7.49 9.75-31.84 9.17-37.92-.9-11.16-18.5-29.54-35.87-55.15-50.67Z" class="colorff8507 svgShape"/><path fill="#ffb91c" d="M684.09 730.68c-6 2.27-13.94 1.17-17.54-2.38a171.28 171.28 0 0 0-34.85-26 250.58 250.58 0 0 0-45-20.12c-6.15-2.07-8-6.68-4.13-10.12l39.63-34.74c2.76-2.42 7.78-3.64 12.7-3.09 1.44.16 2.7.3 3.45.4 26.95 3.57 51.41 11.4 71.13 22.78s33.39 25.64 39.54 41.28c.15.39.38 1 .62 1.78 1 2.84-1.17 5.74-5.35 7.33Z" class="colorffb91c svgShape"/><path fill="#ff8507" d="M653 712.69c-6 2.69-14.56 2.15-19.51-1.18q-5.19-3.48-10.87-6.77t-11.73-6.28c-5.76-2.85-6.69-7.79-2.05-11.26l60.43-45.09c4.53-3.38 12.8-4.18 19-1.85a171.87 171.87 0 0 1 25.42 11.9 125.36 125.36 0 0 1 20.61 14.68c4 3.58 2.65 8.35-3.21 11Z" class="colorff8507 svgShape"/><path fill="#ffb91c" d="M652.42 636.93s-9.95-8.6-27.85-6.42c-26.78 3.25-43 29-44.06 39s2.07 10.44 2.07 10.44Z" class="colorffb91c svgShape"/><path fill="#ff8507" d="M606.06 693.58c-7.34-29 47.43-64.5 74.74-64.56 42.39-.09 54.83 33.06 55.77 42.05.43 4.12-129.66 25.85-130.51 22.51Z" class="colorff8507 svgShape"/><path fill="#ffb91c" d="M749.12 704.36c5.06-9.62 4.49-37.84-19-39.64s-81.82 25-80.63 49.12c.76.56 11.56 5.23 11.56 5.23s83.01-5.07 88.07-14.71Z" class="colorffb91c svgShape"/><ellipse cx="545.2" cy="734.09" fill="#274fb4" rx="84.42" ry="48.74" class="color274fb4 svgShape"/><path fill="#1d79e6" d="M545.2 778c21.78 0 42.15-5 57.37-13.92 14.07-8.3 21.83-18.94 21.83-29.94s-7.76-21.63-21.83-29.94c-15.22-9-35.59-13.92-57.37-13.92s-42.16 4.95-57.37 13.92c-14.08 8.26-21.83 18.89-21.83 29.89s7.75 21.64 21.83 29.94C503 773 523.42 778 545.2 778Z" class="color1d79e6 svgShape"/><path fill="#274fb4" d="M509.3 727.06a45.45 45.45 0 0 0-.11 5.51c0 5.32 3.52 10.64 10.55 14.7 14.06 8.12 36.86 8.12 50.92 0 7-4.06 10.54-9.38 10.54-14.7v-7Z" class="color274fb4 svgShape"/><ellipse cx="545.2" cy="724.09" fill="#42a4f7" rx="36.01" ry="20.79" class="color42a4f7 svgShape"/><path fill="#274fb4" d="m509.54 710.1 4.6-6.73c-.1-.06-9.89-6.78-27.69-21.22-9.5-7.7-9.19-15.37-8.16-19.25 1.3-4.87 5-8.72 9-9.37 7.9-1.29 11.73 8.51 11.89 8.93l7.63-2.86c-2.12-5.71-9.23-16-20.83-14.12-7.18 1.18-13.44 7.33-15.56 15.32-2.62 9.85 1.35 19.94 10.9 27.68 18.1 14.69 27.82 21.35 28.22 21.62Z" class="color274fb4 svgShape"/><path fill="#42a4f7" d="M509.19 725.54h71.93c0-10.63 16.43-42.46 16.43-92.78h-104.7c0 48.47 16.34 78.35 16.34 92.78Z" class="color42a4f7 svgShape"/><ellipse cx="545.2" cy="634.28" fill="#bde6ff" rx="52.42" ry="30.26" class="colorbde6ff svgShape"/><path fill="#42a4f7" d="M545.2 659.13c13.15 0 25.41-2.93 34.55-8.25 8.08-4.71 12.53-10.6 12.53-16.6s-4.45-11.89-12.53-16.6c-9.14-5.32-21.4-8.25-34.55-8.25s-25.42 2.93-34.55 8.25c-8.08 4.71-12.54 10.61-12.54 16.6s4.46 11.89 12.54 16.6c9.13 5.32 21.4 8.25 34.55 8.25Z" class="color42a4f7 svgShape"/><path fill="#274fb4" d="M510.57 636c9.14-5.32 21.4-8.25 34.55-8.25s25.42 2.93 34.55 8.25a31.74 31.74 0 0 1 9 7.44 31.58 31.58 0 0 1-9 7.44c-9.13 5.32-21.4 8.25-34.55 8.25s-25.41-2.93-34.55-8.25a31.52 31.52 0 0 1-9-7.44 31.69 31.69 0 0 1 9-7.44Z" class="color274fb4 svgShape"/><ellipse cx="836.88" cy="863.3" opacity=".08" rx="54.82" ry="31.65" fill="#000000" class="color000 svgShape"/><path fill="#ff8507" d="m875.11 823.44-16.31 48.92-4.84 2.83 11.72-50.69 9.43-1.06z" class="colorff8507 svgShape"/><path fill="#ff8507" d="M839.83 888.26a17.52 17.52 0 0 1 5.6-9.69 19.16 19.16 0 0 1 2.31-1.78l2.27-1.48c1.52-1 3.06-1.9 4.61-2.82 3.09-1.81 6.34-3.54 9.51-5a7.55 7.55 0 0 0 1.82-1.29 6.94 6.94 0 0 0 .8-.88l.83-1.07c1.17-1.41 2.31-2.82 3.62-4.14-.54 1.77-1.24 3.45-1.93 5.14l-.55 1.25a10.56 10.56 0 0 1-.73 1.35 8.66 8.66 0 0 1-2.19 2.29c-3 2.14-6 4-9.17 5.85-1.56.9-3.13 1.79-4.72 2.63l-2.4 1.25c-.74.38-1.47.78-2.17 1.23a28 28 0 0 0-7.51 7.16Z" class="colorff8507 svgShape"/><path fill="#ff8507" d="M859.05 873.58c-3.93.78-7.83 1.51-11.8 2.1-1 .14-2 .28-3 .37a9.09 9.09 0 0 0-2.7.5 11.22 11.22 0 0 0-4.66 3.35 11.92 11.92 0 0 1 4.11-4.46 10 10 0 0 1 3-1.2c.93-.22 1.87-.5 2.81-.77 3.76-1.13 7.51-2.42 11.21-3.73Z" class="colorff8507 svgShape"/><path fill="#ff8507" d="m859.08 872.54-5 7.86-2.47 3.92a12.39 12.39 0 0 0-1.23 4.34 13.06 13.06 0 0 1 .37-4.71l1.58-4.41 3.16-8.76Z" class="colorff8507 svgShape"/><path fill="#bef2fa" d="M826.24 812.48c31 11 22.87 18.72 36.49 24.11 7.61 3 9.81-4.11 14.47-12.09s3.9-40 3.9-40-81.47 18.57-54.86 27.98Z" class="colorbef2fa svgShape"/><path fill="#ff8507" d="m832.96 799.04-16.31 48.92-4.84 2.82 11.72-50.69 9.43-1.05z" class="colorff8507 svgShape"/><path fill="#ff8507" d="M797.68 863.86a17.52 17.52 0 0 1 5.6-9.69 19.24 19.24 0 0 1 2.31-1.79l2.26-1.48c1.52-1 3.07-1.9 4.62-2.81 3.09-1.81 6.34-3.54 9.5-5.06a7.37 7.37 0 0 0 1.83-1.28 6.94 6.94 0 0 0 .8-.88l.83-1.08c1.16-1.4 2.31-2.82 3.62-4.13-.54 1.77-1.25 3.45-1.93 5.14l-.56 1.24a9.35 9.35 0 0 1-.72 1.35 8.85 8.85 0 0 1-2.19 2.3c-3 2.13-6 4-9.17 5.85q-2.34 1.35-4.72 2.63l-2.4 1.24c-.74.38-1.47.79-2.17 1.24a27.69 27.69 0 0 0-7.51 7.21Z" class="colorff8507 svgShape"/><path fill="#ff8507" d="M816.9 849.18c-3.93.78-7.84 1.51-11.81 2.1-1 .14-2 .27-3 .36a9.42 9.42 0 0 0-2.7.51 11.32 11.32 0 0 0-4.67 3.34 11.93 11.93 0 0 1 4.12-4.45 10 10 0 0 1 3-1.21c.93-.22 1.87-.49 2.81-.77 3.76-1.13 7.51-2.41 11.21-3.73Z" class="colorff8507 svgShape"/><path fill="#ff8507" d="m816.93 848.13-5 7.87-2.47 3.91a12.29 12.29 0 0 0-1.23 4.35 12.89 12.89 0 0 1 .37-4.72l1.58-4.4 3.15-8.76Z" class="colorff8507 svgShape"/><path fill="#bef2fa" d="M896.19 710.24s-56.31 15.39-79.6 20.2-46.09 17.93-37.44 51 41.43 40.27 57.41 37.61 57.64-18.87 66-42.34c9.86-27.68 7.51-51.18 7.51-51.18Z" class="colorbef2fa svgShape"/><path fill="#68d0fc" d="M779.15 781.49c-3.62-4.47-11.1-13.61.66-48.06 10.82-31.69 5.23-52.09 1.51-56.76s19.28-28.93 24.27-22.75 29 63.58 39.78 69.7c17.31 22.1-30.78 58.59-66.22 57.87Z" class="color68d0fc svgShape"/><path fill="#42a4f7" d="M809.07 648.7c5.63 7.94 2.1 20.11-7.88 27.18s-22.64 6.39-28.26-1.54-2.1-20.11 7.88-27.19 22.64-6.38 28.26 1.55Z" class="color42a4f7 svgShape"/><path fill="#274fb4" d="M792.36 659.34a3.35 3.35 0 1 1-4.23-1.38 3.16 3.16 0 0 1 4.23 1.38Z" class="color274fb4 svgShape"/><path fill="#ff4848" d="M775.73 655.23s-3.9-7.89.22-14.8c3.9-6.53 14.4-6.51 20.83-16.19 0 0 1.69 2.67 1.75 4.48 1.63-1.85 4.09-6.52 4.09-10.16 4 1.5 13.26 14.26 7.49 22.46-3.55 5.05-5 3.57-16.44 4.12-13.86.67-17.94 10.09-17.94 10.09Z" class="colorff4848 svgShape"/><path fill="#e3f3ff" d="M777.55 669.59c2.59 1.07 8.64 3.4 8.57 6.86a2.44 2.44 0 0 1-3.75 2.13c-1.5-1-2.28-3.1-3.28-4.55a29 29 0 0 1-2.25-2.89Z" class="colore3f3ff svgShape"/><path fill="#e3f3ff" d="M775.69 669.79c-1.69 2.24-5.72 7.32-3.9 10.27a2.44 2.44 0 0 0 4.31-.08c.79-1.62.39-3.83.51-5.58a27.13 27.13 0 0 0 .47-3.64Z" class="colore3f3ff svgShape"/><path fill="#ec0000" d="M773.52 671.54a27.88 27.88 0 0 1 .65 17c-2.6 9.49 10.65 10.14 11.82 2.6s-7-18.71-9.61-19.62-2.86.02-2.86.02Z" class="colorec0000 svgShape"/><path fill="#ff8507" d="M779.24 667.9s-4.24-7.64-9-3.43-8.71 12.14-3.76 17.73c2.22-2 1.52-6.18 5.17-7.12s10.12-1.52 7.59-7.18Z" class="colorff8507 svgShape"/><path fill="#ff4848" d="M875.11 707.53c.23-3.84 1.65-21.67 15.51-32.11 17.76-13.38 44.07-5.67 58 7.27 20.51 19 15.26 50.21 13.85 58.62-2.46 14.58-7.29 17.89-12.23 34.63a131 131 0 0 0-4 53.79c-9.58-16-29.29-11.29-28.84-52.23.21-19.9 1.6-46.52-4.19-52.94-6.13-6.78-19.47 7.23-19.47 7.23s-18.74.85-18.63-24.26Z" class="colorff4848 svgShape"/><path fill="#ec0000" d="M881.27 726.56c3.88-14.1 14.56-24.37 27.32-26.51a21 21 0 0 1 21.63 10.31c5.35 9.17 8.16 30.87-6.32 46.92-12.11 13.42-9.3 26.64-10.21 36.61a49.1 49.1 0 0 1-8.39-21.5 39.69 39.69 0 0 1 .85-14.16c7.1-33.67-9.61-25.5-9.61-25.5s-13.02-1.63-15.27-6.17Z" class="colorec0000 svgShape"/><path fill="#42a4f7" d="M824.62 724.07c-12.53.64-24 10.95-26.82 23.82-3 13.41 3.87 25 14.13 33 14 11 32 12.64 48.66 7.71 13.59-4 32-13 39.16-26 2.12-3.82 2.86-6.72-6.18-6.11-1.36.09-16 .89-15 .22 4.22-2.76 9.7-3.88 4.71-5.38s-18.33-1.78-17-2.5c2.08-1.16 6.13-1.91 5.05-2.5-7.65-4.17-15.6-10.19-23.23-14.37-6.87-3.71-15.48-8.3-23.48-7.89Z" class="color42a4f7 svgShape"/></svg>