<?xml version="1.0" encoding="UTF-8"?>
<!DOCTYPE svg>
<!-- Logo FE -->
<svg xmlns="http://www.w3.org/2000/svg" xml:space="preserve" width="857px" height="741px" version="1.1" style="shape-rendering:geometricPrecision; text-rendering:geometricPrecision; image-rendering:optimizeQuality; fill-rule:evenodd; clip-rule:evenodd"
viewBox="0 0 1472.03 1272.54">
 <defs>
  <style type="text/css">
   <![CDATA[
    .fil0 {fill:url(#id0);fill-rule:nonzero}
   ]]>
  </style>
  <linearGradient id="id0" gradientUnits="userSpaceOnUse" x1="290.84" y1="1151.24" x2="1181.2" y2="121.3">
   <stop offset="0" style="stop-opacity:1; stop-color:#28A7A9"/>
   <stop offset="0.490196" style="stop-opacity:1; stop-color:#3C3185"/>
   <stop offset="0.72549" style="stop-opacity:1; stop-color:#69197A"/>
   <stop offset="1" style="stop-opacity:1; stop-color:#96006E"/>
  </linearGradient>
 </defs>
 <g id="logoFE">
  <metadata id="logo"/>
  <path class="fil0" d="M934.83 748.79c9.72,-5.45 19.68,-9.81 29.79,-13.21 -21.77,-16.29 -44.02,-31.78 -67.36,-45.39l37.57 58.6zm-757.8 0.99c-7.93,4.99 -15.53,-7.09 -7.6,-12.08 67.62,-42.69 146.88,-39.14 217.85,-8.9l20.49 -87.18c9.98,-42.42 -43.08,-60.17 -86.21,-72.31 -2.06,0.45 -4.06,0.92 -5.87,1.39 -4.47,1.16 -5.46,-1.02 -5.78,-1.93 0.84,-0.68 1.76,-1.33 2.76,-1.94l-0.34 -0.09 -9.87 -2.74c-0.75,1.24 -1.47,2.43 -2.14,3.43 -0.9,1.36 -2.95,2.6 -5.71,1.87 0.7,-3.27 1.57,-5.85 2.51,-8.03 -2.34,-2.18 -3.63,-5.34 -3.4,-8.61 -4.79,2.01 -9.34,3.59 -13.37,3.91 -2.21,0.17 -4.18,0.04 -4.76,-2.52 8.69,-4.23 33.03,-18.94 42.48,-19.89 -9.83,-2.49 -17.24,-4 -27.43,-5.19 -0.89,-0.11 -2.13,-1.58 -2.04,-2.66 6.93,-2.52 60.12,5.64 66.5,7.88 12.12,4.26 11.78,10.43 28.08,9.05 12.54,-4.2 31.36,-11.42 41.66,-16.04 -0.91,-4.59 -7.5,-10.59 -10.52,-15 6.34,0.59 17.02,-2.26 23.09,-4.26 23.51,-7.77 122.64,-69.91 143.5,-88.69 5.14,-4.62 40.52,-58.35 47.2,-84.32 -16.79,-5.47 -29.97,-34.92 -26.04,-52.56 4.45,-0.38 4.53,0.09 8.94,-1.41 19.45,-24.69 28.89,-43.15 23.84,-73.98l-2.97 0.28c-8.37,0.81 -8.69,-8.27 -2.86,-10.92 0.75,-0.34 1.52,-0.66 2.29,-0.99 -5.48,-13.2 -15.18,-26.95 -18.56,-28.18 -18.98,-0.3 -30.25,8.78 -37.23,8.89 -11.54,0.19 -11.51,-15.22 -18.79,-17.55 -8.88,-1.09 -11.6,-3.18 -8.04,-10.13 -3.25,-1.23 -5.93,-2.18 -6.94,-5.87 1.74,-0.95 3.59,-1.65 5.14,-4.75 -4.79,-0.75 -9.44,-2.78 -12,-4.69 -2.35,-1.76 -2.38,-4.55 -0.43,-5.3 7.75,-2.96 18.16,-6.13 15.35,-22.52 -4.58,0.13 -12.02,-0.59 -14.34,-4.97 3.41,1.69 6.36,1.89 8.82,1.72 -2.63,-1.11 -4.11,-2.37 -4.61,-3.68 3.12,1.11 5.88,1.49 8.34,1.3 -3.63,-13.12 -8.72,-22.02 -3.23,-36.96 -6.11,4.54 -4.83,13.13 -3.04,20.77 -11.08,-4.76 -14.55,-13.96 -12.98,-25.58 4.32,-13.32 13.68,-15.32 23.01,-21.78 17.19,-10.14 20.37,-23.37 50.39,-30.52 101.9,-21.98 75.02,28.19 143.28,32.06 32.57,1.85 54.34,-12 64.18,-32.65 -8.18,29.24 -29.07,38.71 -59.35,45.74 50.35,15.82 65.72,-14.83 66.32,-17.64 -2.71,12.94 -15.56,27.52 -52.49,30.11 16.06,5.28 27.76,6.33 41.93,5.98 7.42,-8.33 11.67,-19.01 14.68,-28.72 -1.05,6 -4.74,17.58 -11.6,29 17.29,-0.75 37.33,-5.49 33.18,-25.62 3.21,10.02 6.83,23.96 -35.28,29.84 -12.06,18.04 -23.41,34.63 -52.58,51l12.07 -3.47c-1.75,4.03 -3.07,5.23 -5.02,7.93 16.08,-3.99 42.22,-16.59 52.47,-34.96 -2.96,22.19 -32.91,40.57 -65.88,52.58 -20.23,26.01 -51.25,20.32 -78.05,15.21 1.7,8.6 4.94,15.28 7.98,22.35 75.31,-8.47 182.12,10.29 249.08,3.15 30.87,-4.85 58.79,-33.78 105.45,-41.3 -5.49,3.59 -7.99,7.37 -10.52,10.23 -26.24,5.52 -48.61,19.66 -64.21,31.75 50.88,-17.49 84.14,-37.25 139.89,-34.6 26.46,1.27 58.75,17.94 71.19,38.29 -3.87,3.41 -14.4,2.15 -22.37,10.23 -11.84,-12.85 -29.27,-26.36 -56.89,-26.35 15.9,2.97 30.49,11.45 40.34,23.07 -5.6,5.37 -12.68,1.24 -20.02,4.47 -18.47,-13.88 -39.36,-16.23 -63.31,-10.07 -46.92,12.06 -109.31,57.39 -157.84,53.73 -89.19,-6.72 -74.15,-45.98 -195.17,-43.54 0.21,1.89 0.71,3.86 1.55,5.92 0.06,0.12 25.05,27.31 25.26,27.56 17.06,20.54 22.89,45.59 30.39,92.83 4.93,35.15 34.47,70.89 69.3,85.23l0 0c101.21,11.93 233.03,70.24 355.71,88.06 101.4,14.72 181.38,-8.73 190.95,-6.82 47.18,9.41 24.41,87.37 39.04,87.48 26.26,0.22 49.59,5.06 59.48,15.83 17.74,19.33 -5.55,95.38 -2.83,108.35 1.64,7.81 19.7,28.46 -6.14,63.64 -12.58,17.12 -14.52,22.13 -34.05,22.68 -17.27,0.49 -8.59,39.1 -2.96,43.98 5,4.34 24.78,5.29 28.91,10.15 7.38,8.65 -11.46,31.15 -41.5,46.3 -23.66,11.92 -56.57,18.53 -73.42,15.49 -23.39,-4.22 -40.92,-17.38 -64.55,-27.06 64.71,110.87 73.84,282.91 -49.63,356.32 -124.28,73.9 -272.15,-17.85 -338.08,-128.73 -63.46,-106.73 -69.03,-274.06 35.72,-350.18l-57.8 -90.15c-5.44,-2.49 -10.96,-4.87 -16.54,-7.11l-58.7 251.08c2.9,11.39 5.41,22.06 7.41,31.17l2.94 2.47c15.39,12.98 25.36,29.66 29.04,46.15 2.34,10.44 2.17,20.83 -0.69,30.28 0.84,5.3 0.9,10.91 -0.26,15.75 -18.51,4.79 -68.57,59.79 -77.51,59.49 -24.1,0.8 -38.86,-0.83 -61.13,-6.32 -9.31,-2.28 -6.54,-18.15 1.72,-18.65 34.13,-1.65 39.89,-0.95 52.05,-22.47 -6.99,-3.31 -13.79,-7.65 -20.14,-13 -15.42,-13 -25.42,-29.69 -29.09,-46.14 -3.9,-17.47 -0.81,-34.8 10.18,-47.84l0.59 -0.67c1.33,-1.52 2.75,-2.94 4.23,-4.27l-288.9 -231.98 -7.03 29.9c1.82,0.92 3.63,1.85 5.43,2.81 86.58,45.88 161.61,133.2 183.51,230.11 2.06,9.15 -11.86,12.28 -13.92,3.13 -20.97,-92.82 -93.37,-176.69 -176.24,-220.61l-2.15 -1.12 -2.96 12.61c52.91,28.61 99.33,73.42 128.44,122.37 65.87,110.78 75.92,284.62 -48.36,358.51 -124.28,73.9 -272.15,-17.85 -338.08,-128.73 -65.93,-110.88 -69.4,-287.17 48.4,-358.64 59.33,-36 127.94,-31.12 189.84,-3.28l2.9 -12.31c-67.18,-29.25 -142.68,-33.7 -206.93,6.86zm54.51 -141.57c-3.69,-13.27 -4.41,-18.68 -12.17,-36.36 8.65,15.22 12.85,28.43 14.55,36.41 -1.63,-11.29 -2.11,-44.66 -1.77,-49.97 -4.08,-2.61 -23.18,-14.57 -15.2,-20.69 7.95,-6.09 12.05,14.61 15.36,19.77 -2.57,-6.05 -13.97,-33.43 -2.02,-35.26 2.86,-0.44 4.52,0.65 5.52,1.84 0.14,-1.31 0.04,-2.73 0.21,-4.01 -0.68,-1.68 -2.02,-5.15 -3.26,-9.24l-0.59 0.68c1.32,3.57 2.37,7.02 2.97,9.01 -1.31,-1.15 -3.75,-2.9 -6.29,-4.97 -6.44,8.14 -12.51,17.68 -17.12,28.75 -0.94,19.81 0.43,26.84 1.7,42.8 0.7,5.38 1.87,13.28 3.02,21.84 7.63,16 18.28,38.73 18.73,47.33 -3.77,-8.14 -10.1,-21.69 -17.19,-35.12 1.17,10.07 2,19.87 1.75,26.62l1.14 3.89c-0.41,-0.51 -0.82,-1.14 -1.25,-1.85 -0.12,1.49 -0.31,2.77 -0.58,3.81l-0.85 -6.48c-6.3,-12.86 -13.82,-41.89 -17.58,-54.72l-0.17 -0.49c-2.43,-3.32 -4.78,-6.11 -6.98,-8.16 -10.18,-8.61 -20.97,-14.57 -31.64,-18.69 -0.63,4.75 -1.89,9.41 -2.37,11.26 3.69,3.53 25.11,27.39 31.31,36.43 -3.99,-6.75 -9.64,-18.8 -13.46,-35.18 6.05,17.53 9.08,21.82 15.12,33.59 6.18,10.69 22.01,36.13 23.24,44.77 -7.72,-13.37 -26.6,-45.71 -38.57,-55 -13.68,-9.61 -28.09,-13.96 -41.24,-15.67l58.84 97.13 64.08 0 -5.78 -121.32c-2.14,-10.58 15.6,-11.76 16.14,-1.17l6.4 124.39c0.38,7.46 -3.28,14.22 -10.49,14.22l-66.86 0c-6.31,0 -14.07,-2.39 -17.34,-7.81l-64.27 -106.31c-6.57,0.2 -12.37,0.84 -17.01,1.4 4.84,-1.64 10.26,-2.66 15.97,-3.12l-4.81 -7.96c-7.11,-11.76 6.51,-20.18 12.98,-9.5l10.81 17.85c15.02,1.71 29.9,6.62 40,13.96 -5.19,-6.52 -13.84,-15.63 -17.53,-18.73 -2.8,-1.24 -25.89,0.06 -19.98,-9.4 1.66,-2.62 5.34,-1.5 7.38,-0.93 -3.22,-1.72 -7.62,-6.19 -9.41,-9.93 -14.16,-2.17 -26.84,-1.98 -35.97,-1.7 10.03,-2.41 21.79,-2.66 33.75,-1.14 -0.94,-0.9 -1.55,-1.56 -2.09,-2.08 -3.58,0.13 -21.43,0.16 -18.7,-7.57 0.77,-2.18 4.14,-1.65 6.4,-0.89 -3.11,-1.94 -5.8,-4.83 -8.43,-7.37 -1.57,-0.89 -5.14,-4.08 -6.75,-4.03 -3.96,0.5 -10.45,1.3 -14.33,0.03 -4.45,-1.45 -5.01,-7.6 2.71,-6.78 -3.68,-1.8 -6.36,-4.23 -8.6,-7.06l-4.93 -2.81c-3.03,0.71 -15.44,5.54 -17.18,-0.95 -0.94,-3.48 2.58,-4.34 5,-4.11 -3.06,-1.21 -5.76,-3.17 -8.1,-5.45 -1.25,-0.63 -3.49,-1.35 -5.01,-1.68 -3.18,0.52 -14.8,4.82 -14.2,-1.31 0.2,-1.99 2.17,-2.54 4.24,-2.67 -3.61,-0.73 -11.38,-4.47 -8.68,-9.32 4.57,-8.22 17.73,10.09 19.43,12.34 0.92,0.25 2.19,0.64 3.1,1.05 -0.45,-2.16 0.05,-4.39 1.58,-5.51 8.22,-5.98 17.36,14.88 19.68,16.3 -2.1,-3.6 -10.56,-14.24 -6.67,-16.85 6.89,-4.61 8.14,12.09 7.38,17.17 0.96,0.53 2.35,1.32 3.65,2.25 -0.34,-0.84 -1.29,-3.12 1.31,-5.54 8.17,-7.59 18.21,16.21 21.14,19.59 1.67,0.43 2.26,1.5 3.69,2.12 -0.14,-2.86 0.83,-4.95 2.38,-6.06 8.78,-6.32 18.9,18.31 20.96,23.79 0.95,0.78 1.81,1.86 2.75,2.69 -0.07,-1.5 0.4,-3.34 2.7,-4.9 5.03,-3.39 10.11,2.3 14.12,9.34l1.77 0.51c-0.85,-4.04 -0.36,-7.24 3.63,-7.61 4.9,-0.45 5.82,4.77 5.39,10.59 11.08,4.13 21.11,9.65 28.61,16.2 -5.71,-8.67 -15.42,-20.92 -19.66,-25.18 -2.01,-1.11 -13.2,-1.91 -19.99,-4.77 0.75,1.7 0.64,5 0.43,7.35 -1.02,-0.83 -5.56,-6.62 -2.91,-8.1 0.17,-0.1 0.33,-0.17 0.49,-0.23 -3.19,-1.85 -4.56,-4.43 -1.75,-8.14 2.35,-3.06 6.79,-1.26 9.26,-0.32 -4.24,-2.78 -9.91,-9.95 -11.05,-14.98 -2.3,-2.42 -3.38,-3.91 -4.32,-4.97 -3.99,-0.22 -22.23,-1.81 -22.86,-8.85 -1.92,-0.56 -3.73,-1.08 -5.43,-1.56 1.79,0.12 3.61,0.32 5.45,0.59 0.07,-0.52 0.23,-1.07 0.5,-1.65 1.19,-2.61 5.32,-1.58 8.03,-0.4 -3.64,-2.74 -6.65,-6.62 -9.63,-10.07 -1.86,-1.28 -5.92,-5.63 -7.93,-5.75 -4.96,0.18 -13.1,0.45 -17.78,-1.55 -5.35,-2.3 -5.36,-9.99 4.12,-8.11 -4.35,-2.65 -7.41,-5.96 -9.87,-9.72l-5.81 -4.03c-3.83,0.55 -19.76,5.15 -21.2,-3.09 -0.77,-4.42 3.69,-5.09 6.67,-4.54 -3.67,-1.84 -6.8,-4.58 -9.45,-7.66 -1.48,-0.92 -4.17,-2.07 -6.02,-2.65 -4,0.3 -18.89,4.33 -17.46,-3.2 0.46,-2.44 2.97,-2.91 5.56,-2.84 -4.41,-1.3 -13.62,-6.81 -9.73,-12.53 6.58,-9.67 20.85,14.49 22.71,17.48 1.12,0.41 2.65,1.03 3.74,1.64 -0.32,-2.73 0.55,-5.44 2.57,-6.65 10.86,-6.51 19.87,20.39 22.58,22.4 -2.19,-4.7 -11.5,-18.84 -6.39,-21.64 9.06,-4.95 8.75,15.9 7.24,22.12 1.13,0.76 2.77,1.9 4.28,3.19 -0.32,-1.07 -1.25,-4.01 2.24,-6.72 10.98,-8.51 20.78,22.13 24.03,26.64 2.03,0.73 2.65,2.12 4.35,3.05 0.14,-3.56 1.58,-6.05 3.62,-7.25 10.89,-6.44 20.2,21.07 22.9,30.28l1.3 0.53c-2.98,-7.91 -10.96,-29.64 -2.13,-28.22 11.16,1.78 4.16,21.32 2.57,28.41 0.94,0.4 1.89,0.82 2.83,1.25 0.59,-0.91 1.51,-1.79 2.88,-2.55 6.65,-3.66 12.34,4.04 16.53,13.29 0.73,0.49 1.47,0.98 2.19,1.48 -0.73,-4.96 -0.13,-8.97 3.87,-9.7 -1.92,-1.21 -3.69,-2.49 -5.07,-3.81 0.41,2.28 -0.04,5.75 -0.5,8.3 -1.17,-1.14 -6.15,-8.82 -2.71,-10.36 0.46,-0.21 0.87,-0.31 1.22,-0.31 -1.49,-2.42 -1.28,-4.9 2.03,-7.25 3.36,-2.36 7.28,0.89 9.48,2.63 -3.4,-4.17 -6.86,-13.25 -6.42,-18.71 -1.55,-3.18 -2.18,-5.04 -2.79,-6.42 -4.43,-1.66 -26.25,-10.71 -18.98,-18.76 2.04,-2.26 5.89,0.1 8.27,2.17 -2.81,-3.94 -4.63,-8.84 -6.55,-13.29 -1.47,-1.88 -4.2,-7.59 -6.2,-8.35 -5.09,-1.41 -13.43,-3.73 -17.52,-7.26 -4.7,-4.03 -2.25,-11.82 6.76,-6.89 -3.57,-4.08 -5.62,-8.41 -6.91,-13.01l-4.6 -5.94c-4.06,-0.67 -21.67,-1.08 -20.5,-9.9 0.63,-4.72 5.37,-3.98 8.21,-2.47 -3.13,-3.04 -5.43,-6.81 -7.13,-10.78 -1.21,-1.41 -3.57,-3.43 -5.26,-4.6 -4.15,-0.99 -20.53,-1.65 -16.68,-8.82 1.25,-2.33 3.94,-2 6.54,-1.11 -4.05,-2.73 -11.63,-11.25 -5.86,-15.8 9.76,-7.71 16.51,21.34 17.45,24.96 1,0.77 2.35,1.89 3.26,2.85 0.55,-2.86 2.29,-5.33 4.72,-5.91 13.09,-3.14 13.65,27 15.75,29.91 -0.73,-5.47 -5.65,-22.77 0.42,-23.97 10.76,-2.13 3.8,18.91 0.29,24.73 0.9,1.13 2.19,2.8 3.31,4.59 0.02,-1.19 0.01,-4.46 4.42,-6.09 13.84,-5.12 14,29.07 15.85,34.67 1.82,1.38 2.01,2.99 3.44,4.48 1.28,-3.57 3.53,-5.62 5.98,-6.2 13.94,-3.25 13.78,31.98 13.5,39.72 0.77,1.45 1.27,3.2 2,4.69 0.68,-1.86 2.18,-3.88 5.79,-4.6 5.56,-1.13 8.84,3.31 10.75,9.76 0.46,-0.89 1.07,-1.65 1.85,-2.24 0.02,-1.97 0.56,-3.59 2.16,-3.78 1.94,-0.22 2.64,0.76 2.64,2.3 2.23,0 3.71,0.95 4.72,2 0.07,-1.56 -0.17,-3.25 -0.05,-4.78 -3.16,-6.54 -16.59,-36.73 -3.39,-39.2 2.32,-0.43 5.04,0.49 7.48,3.07 0.67,-1.82 0.22,-3.27 1.26,-5.14 -0.52,-5.52 -13.28,-34.93 0.54,-35.76 4.4,-0.26 5.63,2.55 6.09,3.57 0.29,-1.96 0.77,-3.88 1.12,-5.2 -5.22,-3.67 -19.13,-19.11 -9.09,-21.34 5.67,-1.26 7.97,15.46 9.41,20.42 0.71,-3.29 -10.18,-29.38 2.24,-31.62 2.31,-0.42 4.74,1.04 6.29,3.3 0.41,-1.17 1.16,-2.64 1.72,-3.68 -0.56,-3.46 -5.72,-30.96 5.57,-28.02 6.68,1.74 3.38,11.91 0.93,15.78 1.9,-1.75 4.08,-3.04 6.03,-1.52 6.02,4.71 -7.8,11.46 -10.99,13.87 -1.01,1.65 -2.28,4.27 -2.79,5.93 0.04,4.06 -0.51,8.16 -2.05,11.95 1.87,-2.37 5.65,-4.79 7.98,-0.97 4.33,7.13 -10.64,14.13 -13.87,16.23l-1.72 6.84c0.63,4.43 0.5,8.92 -1.02,13.77 5.88,-7.63 10.92,-1.86 8.41,3.38 -2.19,4.56 -8.48,9.71 -12.31,12.83 -1.43,1.41 -1.63,7.34 -2.18,9.52 0.03,4.53 0.32,9.43 -0.61,13.87 1.26,-2.67 3.67,-6.15 6.28,-4.97 9.28,4.17 -6.05,20.17 -9.23,23.27 0,1.41 0.16,3.24 0.03,6.56 0.68,1.26 1.2,2.88 1.58,4.66 1.35,1.75 1.42,4.26 0.71,7.1 0,2.53 -0.25,4.92 -0.75,6.72 1.24,-2.32 3.38,-6.58 7.15,-5.83 13.56,2.81 -7.39,22.41 -8.67,25.99 -0.36,5.58 0.27,19.5 1.5,29.66l0.4 1.24c2.39,-15.99 11.45,-34.24 23.53,-49.42 -4.85,-4.3 -9.04,-9.57 -4.99,-13.87 3.16,-3.35 6.57,2.37 9.21,8.83l0.79 -0.88c-2.49,-9.22 -3.81,-20.05 3.3,-20.92 1.96,-0.24 4.19,0.66 6.1,2.95 0.65,-1.48 0.35,-2.72 1.32,-4.23 -0.14,-4.64 -9.28,-29.94 2.33,-29.91 3.7,0.02 4.59,2.43 4.92,3.31 0.34,-1.63 0.85,-3.21 1.2,-4.29 -4.17,-3.35 -15,-17.01 -6.48,-18.35 4.82,-0.76 5.86,13.36 6.8,17.6 0.77,-2.72 -6.97,-25.14 3.54,-26.36 1.95,-0.23 3.91,1.12 5.09,3.09 0.41,-0.96 1.11,-2.15 1.64,-2.99 -0.29,-2.93 -3.16,-26.22 6.13,-23.16 5.5,1.8 2.2,10.15 -0.05,13.26 1.68,-1.37 3.58,-2.34 5.13,-0.96 4.79,4.26 -7.13,9.18 -9.93,11.03 -0.93,1.33 -2.13,3.46 -2.64,4.83 -0.19,3.39 -0.86,6.8 -2.35,9.89 1.69,-1.88 4.98,-3.71 6.72,-0.39 3.26,6.19 -9.64,11.27 -12.46,12.86l-1.79 5.63c0.29,3.74 -0.05,7.5 -1.58,11.47 5.32,-6.07 9.23,-0.98 6.86,3.27 -2.08,3.71 -7.61,7.69 -10.98,10.1 -1.27,1.11 -1.75,6.06 -2.32,7.85 -0.09,1.41 -0.14,2.85 -0.22,4.3 0.71,-0.61 1.43,-1.21 2.15,-1.8 1.1,-3.05 3.14,-6.44 4.73,-5.31 0.46,0.32 0.77,0.67 0.96,1.04 2.44,-1.68 4.9,-3.18 7.37,-4.47 -2.18,1.79 -4.62,3.82 -7.21,6.08 -0.58,2.36 -4.2,5 -6.64,6.25l0 -0.19 -1.63 1.57c-0.16,1.41 -0.39,2.79 -0.76,4.12 1.19,-2.17 3.4,-4.96 5.52,-3.84 7.55,3.98 -6.12,16.57 -8.95,19 -0.08,1.18 -0.03,2.72 -0.32,5.49 1.8,3.91 1.71,11.56 0.32,15.56 1.16,-1.88 3.17,-5.34 6.29,-4.51 11.2,3.07 -7.37,18.38 -8.63,21.31 -0.64,4.98 -0.82,18.05 -0.19,26.7 4.65,-23.29 27.2,-51.61 49.39,-61.52 -14.27,10.31 -40.88,30.58 -48.59,66.34 -2.6,15.55 5.8,53.62 9.34,69.31 -5.16,-7.48 -11.01,-38.12 -13.84,-50.67zm17.45 -172.5c-2.56,-2.47 -3.45,-5.78 -1.44,-6.34 2.16,-0.6 1.59,5.11 1.44,6.34zm26.31 -27.3c2.81,2.16 -2.75,4.69 -4.38,5.46 0.06,-1.91 3.01,-6.51 4.38,-5.46zm-37.27 58.27c-1.58,-1.41 -6.01,-8.12 -2.13,-8.09 2.74,0.02 2.27,7.18 2.13,8.09zm-14.14 70.44c-2.91,-2.64 -7.36,-7.32 -3.49,-8.25 3.07,-0.73 3.69,6.89 3.49,8.25zm37.37 -99.98c-0.35,-2.38 3.66,-8.48 5.58,-7.23 3.61,2.37 -2.62,6.06 -5.58,7.23zm-9.66 29.88c-0.07,-1.98 4.45,-10.46 7.18,-7.8 3.06,2.99 -5.32,6.49 -7.18,7.8zm-23.79 31.11c-1.11,-1.26 -5.93,-7.25 -3.5,-8.9 3.71,-2.52 4.8,5.42 3.5,8.9zm46.18 -94.84c0.49,-4.49 -0.04,-21.78 6.48,-20.02 4.74,1.28 1.54,9.08 -0.29,11.72 1.01,-1.13 2.49,-2.11 3.59,-1.14 4.22,3.75 -6.13,9.01 -9.78,9.44zm-34.01 132.14c0.08,-1.88 2.1,-13.02 6.12,-12.25 6.82,1.31 -3.63,10.61 -6.12,12.25zm33.21 -132.65c-2.57,-3.2 -8.35,-13.36 -2.66,-14.33 4.92,-0.84 3.18,12.68 2.66,14.33zm-12.06 24.86c-3.06,-1.64 -12.29,-15.41 -4.51,-16.3 5.07,-0.58 3.14,12.15 4.51,16.3zm-29.77 39.97c6.52,-5.04 8.92,12.93 10.56,18.5 -2.69,-2.69 -16.34,-14.04 -10.56,-18.5zm-34.42 113.78c-3.04,-9.02 -5.78,-16.46 -13.51,-31.45 10.51,16.05 16.41,30.38 19.34,39.86l0.33 0.5c-0.54,-2.97 -1.08,-6.81 -1.6,-11.1 -1.36,-4.75 -2.64,-10.01 -3.72,-15.76 -6.04,-8.88 -12.89,-16.32 -20.11,-22.58 -1.23,4.51 -2.69,8.49 -3.34,10.29 2.69,3.07 13.45,17.28 22.61,30.24zm3.49 -11.71l-0.25 -2.5 -0.27 -0.49 -0.67 -1.03c0.41,1.42 0.8,2.75 1.19,4.02zm-1.87 -20.97c-0.59,-7.6 -0.94,-13.7 -0.94,-15.87 -1.2,-0.66 -3.43,-1.88 -6.03,-3.47 1.45,3.67 4.09,10.96 6.97,19.34zm-8 -31.55l0.26 0.5 0.02 -1.56 -0.29 -0.78 0.01 1.84zm3.17 6.69c1.5,3.32 2.83,6.29 4.01,7.89 -0.81,-1.61 -2.26,-4.54 -3.84,-8.12l-0.17 0.23zm17.16 22.42c-2.61,6.65 -4.69,13.84 -6,21.59 2.57,8.12 4.74,15.56 5.72,20.22 -1.27,-8.99 -2.02,-23.59 0.28,-41.81zm-6.4 31.23c0.08,1.54 0.21,3.17 0.39,4.86 1.04,2.64 2.13,5.23 3.31,8.06 -1.15,-4.66 -2.39,-9.03 -3.7,-12.92zm2.05 16.44l0.4 2.24c0.84,1.35 1.58,2.57 2.17,3.63 -0.81,-1.71 -1.68,-3.67 -2.57,-5.87zm1.97 10.14c2.46,11.59 5.63,23.65 8.39,33.57 -1.15,-8.05 -2.59,-17.3 -4.3,-26.54 -1.36,-2.4 -2.73,-4.76 -4.09,-7.03zm-10.17 -116.55c-4.37,-3.37 -18.66,-11.21 -18.88,-18.91 -2.67,6.01 -7.04,12.06 -8.71,15.11 -0.45,-8.09 -2.01,-34.6 6.8,-30.19 4.26,2.13 4.73,6.18 3.5,10.71l0.07 -0.09c5.9,-7.1 14.56,16.25 17.22,23.37zm10.16 -101.79c-3.24,-2.74 -4.54,-6.62 -2.19,-7.43 2.52,-0.88 2.27,5.96 2.19,7.43zm29.26 -34.44c3.51,2.36 -2.93,5.78 -4.81,6.82 -0.06,-2.28 3.09,-7.97 4.81,-6.82zm-39.99 72.11c-1.99,-1.56 -7.76,-9.21 -3.14,-9.47 3.26,-0.18 3.23,8.38 3.14,9.47zm25.43 -36.88c-0.6,-2.8 3.72,-10.37 6.1,-9.02 4.47,2.56 -2.66,7.41 -6.1,9.02zm-16.36 75.56c-0.35,-2.88 2.99,-12.8 5.91,-11 4.6,2.84 -1.94,8.64 -5.91,11zm7.1 -39.29c-0.23,-2.35 4.51,-12.78 7.95,-9.82 3.87,3.33 -5.83,8.13 -7.95,9.82zm-25.98 38.79c-1.42,-1.41 -7.6,-8.17 -4.83,-10.32 4.22,-3.28 6.12,6.08 4.83,10.32zm47.86 -116.29c0.24,-5.37 -1.69,-25.91 6.21,-24.3 5.73,1.17 2.5,10.68 0.54,13.97 1.1,-1.42 2.79,-2.71 4.18,-1.62 5.3,4.14 -6.62,11.17 -10.93,11.95zm-30.6 159.76c-0.04,-2.24 1.53,-15.64 6.37,-15.03 8.22,1.05 -3.53,12.9 -6.37,15.03zm29.61 -160.3c-3.3,-3.62 -10.93,-15.28 -4.25,-16.85 5.8,-1.37 4.75,14.85 4.25,16.85zm-12.5 30.47c-3.76,-1.72 -15.76,-17.41 -6.58,-19.05 5.99,-1.07 4.65,14.22 6.58,19.05zm-32.43 49.78c7.38,-6.47 11.58,14.73 13.95,21.23 -3.4,-3 -20.49,-15.48 -13.95,-21.23zm-10.82 99.41c3.74,1.96 6.94,3.5 7.78,4.39 2.94,5.66 8.87,21.18 11.9,31.78 -0.49,-0.8 -1,-1.59 -1.53,-2.39 -0.29,-1.12 -0.59,-2.29 -0.89,-3.51 0.13,0.95 0.27,1.89 0.42,2.82 -4.72,-6.86 -11.03,-13.54 -18.33,-19.64 1.13,-4.92 1.76,-10.05 0.65,-13.45zm-34.4 -4.45l1.2 0.56c-0.04,0.25 -0.07,0.51 -0.08,0.75 -0.39,-0.4 -0.76,-0.85 -1.12,-1.31zm23.46 13.41l1.03 0.74c1.47,6.2 4.05,12.89 4.34,16.28 -0.77,-2.96 -2.63,-9.98 -5.37,-17.02zm-50.94 -144.66c1.99,-4.07 1.6,-8.41 -1.05,-8.2 -2.83,0.23 0.34,6.79 1.05,8.2zm-43.33 -21.08c-2.41,3.81 5.34,4.39 7.62,4.6 -0.91,-2.25 -6.44,-6.46 -7.62,-4.6zm69.95 53.25c1.27,-2.38 3.63,-12.31 -0.99,-10.59 -3.26,1.22 0.44,9.56 0.99,10.59zm-40.64 -25.1c-0.61,-2.99 -8.07,-8.53 -9.81,-6.19 -3.27,4.41 5.77,6.09 9.81,6.19zm48.37 66.75c-0.9,-2.96 -8.41,-11.22 -10.49,-8.21 -3.27,4.75 5.6,7.6 10.49,8.21zm-23.77 -35.31c-0.79,-2.4 -9.89,-10.54 -11.98,-6.18 -2.35,4.91 9.18,5.43 11.98,6.18zm41.99 26.73c0.78,-1.99 3.91,-11.24 0.29,-12.15 -5.53,-1.39 -3.37,8.56 -0.29,12.15zm-96.57 -93.01c-2.54,-5.14 -9.46,-26.01 -16.48,-21.06 -5.1,3.6 2.13,11.5 5.46,13.86 -1.69,-0.91 -3.89,-1.44 -4.78,0.22 -3.39,6.31 11.25,8.06 15.8,6.98zm98.35 142.84c-0.91,-2.2 -8.2,-14.61 -12.66,-11.94 -7.57,4.55 8.97,11.08 12.66,11.94zm-97.62 -143.79c1.66,-4.95 4.12,-19.6 -3.08,-18.28 -6.24,1.15 1.74,16.53 3.08,18.28zm25.26 24.39c2.94,-3.3 7.93,-23.76 -1.74,-21.42 -6.3,1.52 1.56,15.87 1.74,21.42zm53 34.69c-9.97,-3.16 -4.99,19.34 -4.52,26.7 2.04,-4.38 13.37,-23.89 4.52,-26.7zm0.78 142.84l0.89 0.27c1.6,5.07 4.38,10.65 4.89,13.48 -0.86,-2.39 -2.96,-8.14 -5.78,-13.75zm-84.04 -114.64c0.63,-4.22 -0.95,-8 -3.26,-7.07 -2.48,1.01 2.22,6.01 3.26,7.07zm-44.85 -6.68c-1.09,4.1 6.03,2.43 8.13,1.97 -1.45,-1.76 -7.6,-3.97 -8.13,-1.97zm77.83 28.03c0.47,-2.49 -0.22,-12.08 -3.88,-9.23 -2.58,2.02 3.09,8.46 3.88,9.23zm-43.57 -11.05c-1.4,-2.51 -9.65,-5.37 -10.55,-2.78 -1.69,4.89 6.9,3.84 10.55,2.78zm62.29 46.25c-1.65,-2.41 -10.73,-7.69 -11.74,-4.41 -1.6,5.19 7.17,5.24 11.74,4.41zm-31.32 -24.98c-1.39,-1.93 -11.86,-6.66 -12.5,-2.16 -0.72,5.07 9.77,2.28 12.5,2.16zm45.24 12.13c0.14,-2.01 0.34,-11.2 -3.17,-10.99 -5.36,0.31 -0.6,8.64 3.17,10.99zm-112.97 -56.19c-3.73,-3.9 -15.84,-20.68 -20.74,-14.25 -3.56,4.68 5.16,9.73 8.82,10.9 -1.78,-0.34 -3.9,-0.19 -4.23,1.54 -1.26,6.63 12.38,4.07 16.15,1.81zm128.65 100.41c-1.44,-1.72 -11.49,-10.8 -14.73,-7.14 -5.52,6.22 11.18,7.41 14.73,7.14zm-128.26 -101.47c0.1,-4.92 -1.84,-18.76 -7.93,-15.53 -5.28,2.79 6.23,14.34 7.93,15.53zm29.57 14.75c1.7,-3.79 0.4,-23.56 -7.62,-18.74 -5.23,3.15 5.88,13.81 7.62,18.74zm57.37 16.16c-9.84,-0.02 0.99,18.77 3.5,25.24 0.58,-4.51 5.24,-25.23 -3.5,-25.24zm203.86 79.96l1.65 0.46c1.74,-0.86 3.52,-1.67 5.24,-2.4 -2.27,0.45 -4.57,1.13 -6.89,1.94zm26.71 7.57c1.48,0.44 2.97,0.89 4.46,1.35 -1.33,-0.58 -2.84,-1.02 -4.46,-1.35zm41.44 15.13c28.93,13.53 51.57,33.33 49.72,65.94l170.93 71.69c0.09,-6.7 3.43,-16.21 11.66,-32.79 -16.62,-34.75 -39.56,-68.12 -47.58,-106.11 -0.11,-11.08 8.52,-16.55 18.16,-20.94 -22.84,-13.82 -25.66,-11.44 -36.73,-36.1 67.85,22.77 127.85,11.71 178.68,-38.96 -2.72,-5.74 -13.13,-90.52 -55.68,-116.23 -12.56,32.7 -24.24,48.54 -41.69,76.43 -5.83,9.34 -15.18,23.21 -32.33,31.21 -57.25,26.7 -105.19,58.25 -161.41,93.59l-0.46 -11.03c-8.14,3.1 -40.23,18.6 -48.29,21.6 -1.77,0.66 -3.42,1.22 -4.98,1.7zm325.43 181.58l85.6 35.9 30.19 -129.12c-1.86,-0.61 -3.72,-1.21 -5.59,-1.79 -18.13,6.22 -112.55,37.02 -121.62,45.04 -6.83,6.04 -10.87,10.31 -7.65,18.54 3.66,9.35 10.76,20.02 19.07,31.43zm24.85 33.73c7.46,10.62 14.25,21.38 18.93,31.9 7.58,14.84 15,35.36 21.6,56.76l15.26 -65.27 -55.79 -23.39zm15.89 250.42c9.24,-20.58 22.34,-58.55 17.06,-69.9 -1.24,-3.73 -2.61,-7.37 -4.06,-10.95 -5.86,-2.24 -11.77,-3.51 -17.44,-3.79 -11.36,-0.56 -21.6,2.9 -28.01,10.51l-0.03 0.02 0.02 0.02c-6.43,7.63 -8.11,18.3 -5.64,29.37 2.7,12.09 10.23,24.51 21.95,34.39 5.12,4.32 10.58,7.76 16.15,10.33zm1.24 -105.66c-10.63,-20.1 -22.17,-38.28 -28.25,-56.54 -8.3,4.42 -22.35,17.99 -41.24,22.36l44.73 35.92c6.33,-1.77 13.11,-2.48 20.09,-2.13 1.54,0.08 3.1,0.21 4.67,0.39zm-93.72 -53.64c4.7,-2.27 10.36,-4.76 14.08,-8.17 13.55,-12.42 31.61,-26.29 19.22,-43.4 -8.21,-11.31 -45.01,-59.56 -65.13,-85.03l-196.07 -82.24 -7.09 30.15 234.99 188.69zm589.5 1.49c-33.97,-7.36 -85.12,-1.16 -113.55,-17.69 -52.68,-30.62 -100.2,-71.42 -149.51,-109.46 -12.65,3.29 -25.09,8.18 -37.16,14.86l128.02 199.69c7.82,0.81 16.05,4.24 23.09,10.17 7.63,6.43 12.58,14.72 14.41,22.92 1.99,8.94 0.37,17.87 -5.34,24.64l0 0.03c-5.71,6.77 -14.23,9.88 -23.39,9.42 -8.38,-0.41 -17.39,-3.89 -25.01,-10.32 -7.63,-6.43 -12.57,-14.72 -14.4,-22.91 -2,-8.95 -0.38,-17.87 5.33,-24.64l0 -0.03c1.09,-1.29 2.28,-2.45 3.55,-3.47l-124.32 -193.92c-97.67,71.8 -88.17,230.28 -30.36,327.49 60.11,101.09 199.23,191.8 315.11,122.89 115.88,-68.9 103.48,-233.02 42.52,-335.54 -2.82,-4.74 -5.82,-9.46 -8.99,-14.13zm-506.75 -724.84c-12.22,4.62 -21.55,7.11 -33.73,8.53 13.16,1.73 22.75,1.08 33.73,-8.53zm-4.91 -42.91c13.36,-2.46 47.38,-12.1 62.3,-24.8 -16.7,20.76 -50.39,25.33 -62.3,24.8zm68.17 -33.82c-7.29,6.22 -17.24,10.68 -22.64,12.46 3.94,-2.79 6.82,-5.91 9.42,-9.38 -4.16,4.68 -18.5,11.43 -28.04,11.83 8.42,-2.93 14.8,-6.57 18.75,-11.07 -22.59,10.6 -39.5,6.03 -43.98,2.35 8.38,-0.14 16.31,-3.04 22.36,-7.95 -10.19,0.67 -19.57,0.26 -27.29,-2.43 3.39,-0.3 9.54,-1.19 14.22,-2.9 20.18,5.27 31.28,8.3 57.2,7.09zm-667.97 477.77c0.56,-5.29 5.29,-22.39 -4.03,-23.04 -7.42,-0.52 1.36,17.53 4.03,23.04zm-64.96 -50.73c0.2,-3.41 -1.34,-6.33 -3.12,-5.41 -1.91,0.98 2.21,4.64 3.12,5.41zm-36.36 -2.12c-0.57,3.36 5,1.51 6.65,1 -1.29,-1.31 -6.36,-2.64 -6.65,-1zm64.27 16.83c0.2,-2.03 -1.04,-9.64 -3.76,-7.1 -1.93,1.8 3.08,6.55 3.76,7.1zm-35.64 -5.71c-1.3,-1.9 -8.11,-3.6 -8.64,-1.46 -1.01,4.03 5.79,2.57 8.64,1.46zm53.14 32.52c-1.49,-1.8 -9.13,-5.38 -9.7,-2.68 -0.91,4.27 6.11,3.68 9.7,2.68zm-26.85 -17.73c-1.24,-1.44 -9.96,-4.47 -10.15,-0.83 -0.21,4.11 7.99,1.13 10.15,0.83zm37.06 6.45c-0.03,-1.61 -0.53,-8.98 -3.32,-8.56 -4.26,0.64 0.14,6.96 3.32,8.56zm-94.39 -36.82c-3.27,-2.86 -14.16,-15.41 -17.62,-9.91 -2.51,3.99 4.83,7.4 7.84,8.08 -1.45,-0.14 -3.13,0.13 -3.27,1.54 -0.54,5.39 10.19,2.36 13.05,0.29zm110.11 71.07c-1.27,-1.27 -9.96,-7.81 -12.29,-4.65 -3.97,5.37 9.47,5.12 12.29,4.65zm-109.88 -71.95c-0.28,-3.94 -2.82,-14.88 -7.46,-11.86 -4.02,2.61 6.02,11.03 7.46,11.86zm24.71 9.67c1.09,-3.15 -1.37,-18.88 -7.44,-14.44 -3.95,2.9 5.7,10.62 7.44,14.44zm47.06 8.81c-7.88,0.69 2.13,14.94 4.6,19.94 0.15,-3.65 2.39,-20.56 -4.6,-19.94zm229.87 457.32l46.45 -197.54c-57.68,-26.88 -121.78,-32.43 -177.46,1.42 -110.56,67.22 -102.66,234.59 -42.56,335.68 60.11,101.09 199.23,191.79 315.12,122.89 115.88,-68.91 103.48,-233.03 42.52,-335.54 -26.62,-44.78 -69.2,-86.85 -117.95,-114.33l-45.57 193.83c1.86,1.16 3.68,2.47 5.42,3.94l0.53 0.45c7.33,6.37 12.09,14.46 13.88,22.47 2,8.94 0.37,17.87 -5.34,24.64 -5.72,6.78 -14.24,9.9 -23.39,9.45 -8.38,-0.42 -17.38,-3.89 -25.01,-10.32l-0.54 -0.44c-7.32,-6.37 -12.08,-14.47 -13.87,-22.47 -1.75,-7.86 -0.72,-15.7 3.42,-22.08l0 -0.32 1.92 -2.28c5.51,-6.53 13.64,-9.65 22.43,-9.45zm762.94 30.14c-1.1,-4.92 -4.21,-10.01 -9.06,-14.1 -4.85,-4.09 -10.4,-6.29 -15.43,-6.54 -4.27,-0.21 -8.06,1.03 -10.36,3.75 -2.3,2.72 -2.87,6.66 -1.94,10.82 1.1,4.92 4.21,10.01 9.06,14.1 4.85,4.09 10.4,6.29 15.44,6.54 4.26,0.21 8.05,-1.02 10.35,-3.75 2.3,-2.71 2.87,-6.65 1.94,-10.82zm-738.24 6.59c-1.1,-4.92 -4.21,-10.01 -9.06,-14.1l-0.53 -0.44c-4.72,-3.81 -10.05,-5.86 -14.9,-6.1 -4.21,-0.21 -7.95,0.99 -10.26,3.64l-0.1 0.11c-2.29,2.72 -2.86,6.66 -1.94,10.82 1.1,4.92 4.21,10.01 9.06,14.1l0.53 0.44c4.73,3.81 10.05,5.86 14.91,6.1 4.28,0.21 8.07,-1.01 10.35,-3.72 2.3,-2.72 2.87,-6.67 1.94,-10.85zm-220.78 -8.08c-6.83,-41.68 -4.26,-85.63 12.4,-124.61 3.12,-7.29 16.92,2.73 14.21,9.48 -13.88,34.59 -16.22,73.29 -10.49,109.91 0.14,0.86 1.04,1.7 1.96,1.94l43.31 5.08c-4.78,-29.29 -2.98,-60.45 9.26,-87.7 3.55,-7.92 16.81,2.97 14.2,9.48 -10.14,25.25 -11.2,53.74 -6.1,80.25l60.31 7.48c7.96,0.99 9.92,17.61 -4.17,15.96l-120.54 -14.14c-4.37,-0.52 -13.12,-5.59 -14.35,-13.13zm272.01 -17.77c9.93,22.66 11.68,50.33 0.72,73 -3.25,6.74 -16.6,-3.63 -14.16,-9.45 8.85,-21.01 4.3,-46.2 -6.12,-65.85 -4.6,-8.67 15.22,-7.61 19.56,2.3zm65.79 7.72c9.78,34.07 8.24,72.79 -6.02,105.63 -3.66,8.46 -17.24,-1.71 -14.2,-9.48 12.13,-30.87 11.52,-66.81 2.25,-98.26 -2.71,-9.19 15.05,-8.11 17.97,2.11zm62.87 7.38c9.67,44.99 7.93,93.73 -10.42,136.33 -3.82,8.86 -17.18,-2.14 -14.21,-9.48 16.4,-40.53 16.99,-86.72 7.05,-128.92 -2.21,-9.37 15.61,-7.12 17.58,2.07zm337.57 -3.91c-6.82,-41.69 -4.25,-85.64 12.4,-124.62 3.12,-7.29 16.92,2.73 14.21,9.48 -13.88,34.59 -16.22,73.29 -10.49,109.91 0.14,0.86 1.04,1.7 1.97,1.94l43.31 5.08c-4.79,-29.29 -2.98,-60.45 9.25,-87.7 3.55,-7.92 16.81,2.97 14.2,9.48 -10.13,25.25 -11.2,53.74 -6.1,80.26l43.9 5.14c0.67,0.09 2.28,-0.2 1.94,-1.9 -3.59,-17.74 -2.59,-36.86 5.23,-53.32 2.97,-6.25 16.86,3.04 14.15,9.45 -7.01,16.63 -5.63,35.92 0.45,52.97 2.52,7.05 -5.06,11.61 -9.52,11.09l-120.55 -14.14c-4.37,-0.51 -13.12,-5.59 -14.35,-13.12zm272.01 -17.78c9.94,22.66 11.68,50.33 0.72,73 -3.25,6.74 -16.6,-3.62 -14.15,-9.45 8.84,-21.01 4.29,-46.2 -6.13,-65.85 -4.6,-8.66 15.22,-7.61 19.56,2.3zm65.8 7.72c9.77,34.07 8.23,72.8 -6.03,105.64 -3.66,8.45 -17.25,-1.71 -14.2,-9.48 12.13,-30.88 11.53,-66.82 2.25,-98.27 -2.71,-9.19 15.05,-8.11 17.98,2.11zm62.87 7.38c9.66,45 7.92,93.74 -10.43,136.34 -3.81,8.85 -17.18,-2.15 -14.21,-9.49 16.41,-40.53 16.99,-86.72 7.05,-128.91 -2.21,-9.38 15.61,-7.13 17.59,2.06z"/>
 </g>
</svg>
